<svg xmlns="http://www.w3.org/2000/svg" viewBox="0 0 274 223" xmlns:xlink="http://www.w3.org/1999/xlink">
<defs>
<mask fill="#fff" id="mask-2" sketch:name="Clip 2">
<use xlink:href="#path-1"/>
</mask>
<path id="path-1" d="m.06-.178h273.33v222.118h-273.33"/>
</defs>
<g fill="none" fill-rule="evenodd" transform="translate(0 1)">
<path fill="#5e9fcb" sketch:type="MSShapeGroup" mask="url(#mask-2)" d="m85.98,222c-31.675,0-61.158-9.285-85.98-25.199 4.388,.518 8.853,.783 13.38,.783 26.278,0 50.463-8.967 69.659-24.01-24.544-.453-45.258-16.669-52.395-38.953 3.424,.655 6.938,1.006 10.552,1.006 5.116,0 10.071-.685 14.778-1.967-25.66-5.152-44.993-27.822-44.993-54.998-0-.236-0-.471 .004-.705 7.563,4.201 16.211,6.724 25.406,7.015-15.05-10.058-24.953-27.226-24.953-46.685-0-10.279 2.766-19.914 7.594-28.198 27.664,33.934 68.993,56.264 115.609,58.603-.956-4.105-1.453-8.386-1.453-12.782 0-30.975 25.114-56.088 56.091-56.088 16.132-0 30.709,6.812 40.941,17.713 12.776-2.516 24.78-7.184 35.617-13.611-4.188,13.097-13.081,24.089-24.662,31.031 11.346-1.356 22.156-4.371 32.215-8.832-7.52,11.248-17.03,21.127-27.988,29.035 .108,2.405 .162,4.824 .162,7.256 0,74.119-56.416,159.586-159.584,159.586"/>
</g>
</svg>
