<svg xmlns="http://www.w3.org/2000/svg" viewBox="0 0 100 100" xmlns:xlink="http://www.w3.org/1999/xlink" enable-background="new 0 0 100 100">
<g fill="#fff">
<g opacity=".5">
<path d="m38.2,45.3c-.7,0-1.3-.5-1.4-1.2-.8-8.6 .9-20.6 8.2-26.1 .6-.4 1.5-.3 1.9,.3 .5,.6 .3,1.5-.3,1.9-6,4.5-7.9,15.1-7.1,23.7 .1,.7-.5,1.4-1.2,1.5 0-.1-.1-.1-.1-.1z"/>
<path d="m37.6,46.2c-.4,0-.7-.2-1-.5-5-5.5-16.5-9.6-27.9-6.4-.7,.2-1.5-.2-1.7-.9-.2-.7 .2-1.5 1-1.7 12.7-3.6 25,.9 30.7,7.2 .5,.6 .5,1.4-.1,1.9-.4,.3-.7,.4-1,.4z"/>
<path d="m39.4,45.2c-.3,0-.6-.1-.8-.3-.6-.4-.8-1.3-.3-1.9 4.6-6.4 17.1-11 29.1-7.2 .7,.2 1.1,1 .9,1.7-.2,.7-1,1.1-1.7,.9-10.5-3.3-22,.5-26,6.2-.4,.4-.8,.6-1.2,.6z"/>
<path d="m78.1,65.8c-.8,0-1.4-.6-1.4-1.4 0-5.8 4.1-22 14.1-28 .6-.4 1.5-.2 1.9,.5 .4,.6 .2,1.5-.5,1.9-8.4,5-12.8,19.4-12.8,25.7 0,.7-.6,1.3-1.3,1.3z"/>
<path d="m77.1,65.3c-.4,0-.9-.2-1.1-.6-10.1-15.2-19.6-20.2-36.3-19.1-.8,0-1.4-.5-1.5-1.3-.1-.8 .5-1.4 1.3-1.5 17.6-1.2 28.1,4.3 38.8,20.3 .4,.6 .2,1.5-.4,1.9-.2,.2-.5,.3-.8,.3z"/>
<path d="m55.7,84.3c-.7,0-1.3-.6-1.4-1.3-.7-10.6-8.1-29.3-16.2-36.5-.6-.5-.6-1.4-.1-1.9 .5-.6 1.4-.6 1.9-.1 8.7,7.7 16.4,27 17.1,38.3 .1,.8-.5,1.5-1.3,1.5z"/>
<path d="m25.3,71.4c-.4,0-.8-.2-1.1-.5-.5-.6-.4-1.5 .2-1.9 9.6-7.4 34.6-12.9 53.6-5.2 .7,.3 1,1.1 .8,1.8-.3,.7-1.1,1-1.8,.8-18.2-7.4-41.9-2.2-50.8,4.8-.3,.1-.6,.2-.9,.2z"/>
<path d="m25.4,70.5c-.7,0-1.3-.6-1.4-1.3-.4-5.5 .5-11.2 2.5-15.6 2.4-5.3 6.2-8.7 11-9.8 .7-.2 1.5,.3 1.6,1 .2,.7-.3,1.5-1,1.6-8.5,1.9-12.2,12.8-11.5,22.6 .1,.8-.5,1.4-1.3,1.5 .2,0 .2,0 .1,0z"/>
<path d="m56,84.4c0,0-.1,0-.1,0-.8-.1-1.3-.7-1.3-1.5 .1-1.3 .2-2.5 .3-3.8 1.3-18.8 2.5-35.1 37.2-43.3 .7-.2 1.5,.3 1.6,1 .2,.7-.3,1.5-1,1.7-32.7,7.7-33.8,22.3-35.1,40.8-.1,1.3-.2,2.5-.3,3.8-0,.7-.6,1.3-1.3,1.3z"/>
</g>
<path d="m30.1,70c0,2.6-2.1,4.8-4.8,4.8-2.7,0-4.8-2.1-4.8-4.8 0-2.6 2.1-4.8 4.8-4.8 2.7,.1 4.8,2.2 4.8,4.8z"/>
<path d="m70.8,36.8c0,2.6-2.1,4.8-4.8,4.8-2.6,0-4.8-2.1-4.8-4.8 0-2.6 2.1-4.8 4.8-4.8 2.6,0 4.8,2.2 4.8,4.8z"/>
<path d="m60.6,83c0,2.7-2.1,4.8-4.8,4.8-2.6,0-4.8-2.1-4.8-4.8 0-2.6 2.1-4.8 4.8-4.8 2.7,0 4.8,2.2 4.8,4.8z"/>
<path d="m82.8,65c0,2.6-2.1,4.8-4.8,4.8-2.6,0-4.8-2.2-4.8-4.8 0-2.7 2.1-4.8 4.8-4.8 2.7,0 4.8,2.1 4.8,4.8z"/>
<path d="m97.2,37.1c0,2.6-2.1,4.8-4.8,4.8-2.6,0-4.8-2.1-4.8-4.8 0-2.6 2.1-4.8 4.8-4.8 2.6-0 4.8,2.2 4.8,4.8z"/>
<path d="m43.3,44.8c0,2.6-2.1,4.8-4.8,4.8-2.7,0-4.8-2.1-4.8-4.8 0-2.6 2.1-4.8 4.8-4.8 2.7,0 4.8,2.2 4.8,4.8z"/>
<path d="m52.1,16.6c.4,2.6-1.4,5.1-4,5.5-2.6,.4-5.1-1.4-5.5-4-.4-2.6 1.4-5.1 4-5.5 2.7-.4 5.1,1.4 5.5,4z"/>
<path d="m12.2,38.3c0,2.6-2.1,4.8-4.8,4.8-2.7,0-4.8-2.1-4.8-4.8 0-2.6 2.1-4.8 4.8-4.8 2.6,0 4.8,2.1 4.8,4.8z"/>
</g>
</svg>
