<svg xmlns="http://www.w3.org/2000/svg" viewBox="0 0 100 100" xmlns:xlink="http://www.w3.org/1999/xlink" enable-background="new 0 0 100 100">
<g fill="#fff">
<path fill-rule="evenodd" d="m50.5,50.8c-8-11.9-23.9-5-23.9,8.1 0,8.8 7.9,15.1 13.9,19.8 6.2,4.9 8,6 9.9,7.9 2-2 3.7-3.1 9.9-7.9 6.1-4.6 13.9-11.1 13.9-19.9 .1-12.9-15.8-19.9-23.7-8"/>
<path opacity=".5" d="m50.9,33.5c-1.3,0-2.3-1.1-2.3-2.4v-14.7c0-1.3 1-2.4 2.3-2.4s2.4,1.1 2.4,2.4v14.8c0,1.3-1.1,2.3-2.4,2.3z"/>
<path opacity=".5" d="m68.8,35.5c-.4,0-.7-.1-1.1-.3-1.2-.6-1.6-2-1-3.2l6.8-13.1c.6-1.1 2-1.6 3.2-1 1.1,.6 1.6,2 1,3.2l-6.8,13.1c-.5,.8-1.3,1.3-2.1,1.3z"/>
<path opacity=".5" d="m82.5,47.7c-.7,0-1.5-.4-1.9-1-.8-1.1-.5-2.5 .6-3.3l12.1-8.5c1.1-.8 2.5-.5 3.3,.6 .7,1.1 .5,2.5-.6,3.3l-12.1,8.5c-.4,.2-.9,.4-1.4,.4z"/>
<path opacity=".5" d="m32.4,35.5c-.9,0-1.7-.5-2.1-1.3l-6.8-13.1c-.6-1.1-.1-2.6 1-3.2 1.2-.6 2.6-.1 3.2,1l6.7,13.1c.6,1.2 .1,2.6-1,3.2-.3,.2-.7,.3-1,.3z"/>
<path opacity=".5" d="m18.6,47.7c-.5,0-.9-.1-1.4-.4l-12.1-8.6c-1.1-.7-1.3-2.2-.6-3.3 .7-1.1 2.2-1.3 3.3-.6l12.1,8.5c1.1,.8 1.3,2.2 .6,3.3-.5,.7-1.2,1.1-1.9,1.1z"/>
</g>
</svg>
