<svg xmlns="http://www.w3.org/2000/svg" viewBox="0 0 100 100" xmlns:xlink="http://www.w3.org/1999/xlink" enable-background="new 0 0 100 100">
<g fill="#fff">
<path opacity=".4" d="m45.6,41.4v-14.9c-10.2,.4-19.4,4.5-26.5,10.9l10.5,10.6c4.3-3.8 9.9-6.2 16-6.6z"/>
<path opacity=".4" d="m66.3,48.9l11-10c-7.2-7.3-17.1-11.9-28-12.4v14.9c6.6,.4 12.5,3.2 17,7.5z"/>
<path opacity=".4" d="M5.3,68.6h14.9c0-6.9,2.6-13.2,6.8-18L16.5,40C9.5,47.5,5.3,57.6,5.3,68.6z"/>
<path d="m74.7,68.6h14.9c0-3.2-.4-6.4-1.1-9.4-4,2.1-9,4.6-13.9,7.1 .1,.8 .1,1.5 .1,2.3z"/>
<path d="m79.8,41.6l-11,10.1c.4,.6 .9,1.1 1.3,1.7 5.6-.7 11.3-1.4 15.9-1.9-1.7-3.6-3.7-6.9-6.2-9.9z"/>
<path d="m86.9,53.8c-4.4,.5-10,1.2-15.5,1.9-10.2,1.3-20.2,2.6-22,3.2l-.7,.2c-4,1.2-6.3,5.5-5.1,9.5 .1,.4 .3,.7 .4,1.1 0,.1 .1,.1 .1,.2 .2,.3 .4,.6 .6,.9 0,0 .1,.1 .1,.1 .2,.3 .4,.5 .7,.8 0,0 0,0 .1,.1 .3,.2 .5,.5 .8,.7 .1,0 .1,.1 .2,.1 .3,.2 .6,.4 .9,.6 0,0 .1,0 .1,.1 .3,.1 .6,.3 .9,.4 .1,0 .1,0 .2,.1 .3,.1 .7,.2 1,.2 .1,0 .1,0 .2,0 .4,0 .7,.1 1.1,.1 0,0 .1,0 .1,0 .3,0 .6,0 .9-.1 .1,0 .2,0 .2,0 .3-.1 .7-.1 1-.2l.7-.2c1.9-.6 11.1-5.1 20.4-9.8 4.9-2.4 9.8-4.9 13.6-6.9 4.6-2.4 7.8-4 7.8-4s-3.6,.3-8.8,.9z"/>
</g>
</svg>
