<svg xmlns="http://www.w3.org/2000/svg" viewBox="0 0 100 100" xmlns:xlink="http://www.w3.org/1999/xlink" enable-background="new 0 0 100 100">
<g fill="#fff">
<path d="m77.1,58.1c-.4-8.4-7.6-26.7-7.7-27.7-.2,2.9-1.7,7.2-4.6,8.3-1,.4-2.7,.6-4.1,.1-3.6-1.4-4.9-5.1-5.3-8.3-.9-7.2 .6-16.1 3.3-22.8-20.7,15-29.4,30.5-31.3,34.5-7.9,17.4-3,33.6 5.4,42.1 3.3,3.4 5.5,6.2 8.3,8-8.8-10.2-3.6-23.2-1.6-27.1 1-2 4.4-7.2 6.1-9.1 1.2-1.4 .7-1 2,.2 3.1,3.1 5.9,6.4 9.3,9.4 5.7,5.1 11.5,13.7 9,21.8-.1,.3-.2,.5-.3,.8 8.3-6.9 12-18.8 11.5-30.2z"/>
<path opacity=".5" d="m56.1,79.1c-1.3-3.2-4.4-7.3-7.6-10.1 1.7,8.2-2.7,9.9-1.9,16 .3,2 2.4,4.9 5.6,4.4 3.8-.6 5.7-5.9 3.9-10.3z"/>
</g>
</svg>
