<svg xmlns="http://www.w3.org/2000/svg" viewBox="0 0 100 100" xmlns:xlink="http://www.w3.org/1999/xlink" enable-background="new 0 0 100 100">
<g fill="#fff">
<path d="m70.5,53.3c-.6-.4-1.9-1.4-3.6-2.8l-9.3-6.8c-.1,0-.2,0-.3,0-2,0-7.4,.2-13.7,2.3-1.9,.6-3.8,.9-5.7,.9-3.8,0-7.3-1.4-8.2-3.4-.4-.8-.3-1.7 .2-2.4 1.1-1.4 11.7-7.6 19.7-10.9-5.2-2-13.5,.9-15.5,1.3-16.1,2.8-31.2-6.4-31.2-6.4s0,11.8 0,22.1c11.7,6 11.5,13.7 20.3,20 9.3,6.7 13.8,8.1 13.8,8.1 3.8,2.3 9.1,.3 11.4-.9l-12.9-7.7c-.6-.3-.8-1.1-.4-1.7 .3-.6 1.1-.8 1.7-.4l13.2,7.9c0,0 1,.6 1,.6 .7,.3 3,1.4 4.5,.7 1-.4 3.3-1.4 4.9-2.1l-14.4-8.5c-.6-.3-.8-1.1-.4-1.7 .3-.6 1.1-.8 1.7-.4l15.7,9.4c.3,.1 2.2,.7 4.4-.2 1.7-.7 3.8-1.6 5.2-2.2l-16.3-9.8c-.6-.3-.8-1.1-.4-1.7 .3-.6 1.1-.8 1.7-.4 3.8,2.2 7.5,4.5 11.3,6.7 2.1,1.3 4.3,2.6 6.4,3.8 2.4,1.4 4.4,.8 6.4-1.2 .9-.9 2-2.4 1.1-3.6-.2-.2-.8-.7-1.6-1.4l-2.8-2c-3-1.8-6.4-4.1-7.9-5.2z"/>
<path opacity=".5" d="m64.3,30.9c-1.7,0-3.3-.1-4.6-.1-1,0-2-.1-2.8-.1-4.8,0-22.5,9.9-24.9,11.9 .5,.6 2.5,1.9 5.9,1.9 1.6,0 3.2-.3 4.9-.8 6.6-2.2 12.3-2.4 14.5-2.4 .5,0 .7,0 .7,0h.4l.3,.2 21.8,15.8c1.8-3 7-9.9 16.8-10.5l-.3-23.8c-13.6,7-25.1,7.9-32.7,7.9z"/>
</g>
</svg>
