<svg xmlns="http://www.w3.org/2000/svg" viewBox="0 0 100 100" xmlns:xlink="http://www.w3.org/1999/xlink" enable-background="new 0 0 100 100">
<path fill="#e6e7e8" d="m90.8,63.3c2.5-4.9 6.2-16.1 3-25.1 0,.1 0,.2 .1,.3 0-.1-.1-.2-.1-.2s-.6,1.8-1.4,4.6c-.1-.4-.1-.7-.2-1.1 .2-3.4 .1-7.1-.6-10.6-1.1-5.5-5.3-10.3-7.6-11.8 .1,.1 .2,.2 .3,.3-.3-.2-.4-.3-.4-.3s.1,.5 .3,1.4c-2.4-3.8-6.2-5.7-6.2-5.7s.1,.6 .3,2c-7.6-6.8-17.6-10.9-28.6-10.9-11.2,0-21.4,4.3-29.1,11.3 .4,.5 .9,1.1 1.3,1.8 0,0 2.9-.5 6.5-.2 6.2-4.4 13.6-6.7 21.3-6.7 9.9,0 19.2,3.9 26.2,10.9 .4,.4 .7,.7 1.1,1.1-2.1-1.6-4.6-2.9-6.5-3 3.9,2.9 9.6,10 9,22.6-1-2.1-2.2-3.7-3.5-4.8 1.4,12.6 .2,15.4-.7,18.7-.2-1.5-.7-2.7-1.1-3.4 0,0-.1,3.9-2.7,9.6-1.9,4.3-3.9,5.6-4.8,5.4-.8-.1-.2-.9-.4-1.6 0,0-1.3,.6-2.7,2-1.3,1.3-2.4,2.8-3,2.3 .4-.4 .8-1 1.1-1.6-.5,.3-1.8,1.3-4.6,1.7-1.1,.2-6,1.1-12.6-2.2 .9-.1 2.4-.4 3.5,.2-1.1-1.2-3.7-.9-5.6-1.5-1.6-.5-3.8-2.8-5-4 5,1.2 10.3,.3 13.4-1.8 3.1-2.1 5-3.7 6.6-3.3 1.7,.4 2.8-1.3 1.5-2.8-1.3-1.5-4.4-3.5-8.6-2.4-3,.8-6.7,4.1-12.3,.7-4.8-2.8-4.8-5.2-4.8-6.6 0-1 .6-2.4 1.8-3 .6,.2 1,.4 1,.4s-.3-.4-.5-.7c0,0 .1,0 .1,0 .5,.2 1.7,.6 2.2,.9 .9,.4 1.2,.8 1.2,.8s.2-.1 0-.5c-.1-.2-.4-.7-1.1-1.1 .4,.2 .8,.4 1.3,.6 .1-.7 .4-1.4 .2-2.7-.1-.9-.1-1.1-.3-1.4-.2-.3 0-.4 .3-.1-.1-.2-.2-.4-.3-.7 0-.1 .1-.1 .1-.2 .9-1.3 6.6-4.3 7.1-4.6 .6-.4 1.1-1 1.6-1.7 .6-.4 1-1.9 1.1-3 0-.5-.9-1-1.5-1.1-.3-.1-1.3-.3-2.1-.1 0,0 .1,0 .1,.1-1.1-.1-2.5-.1-4.4-.1-1.9,0-3.1-1.1-3.9-2.1-.1-.2-.3-.4-.4-.6-.2-.3-.3-.6-.4-.8 .8-3 2.5-5.6 5.1-7.7 .2-.1-.6,.1-.5,0 .2-.2 1.3-.7 1.5-.8 .3-.1-1.2-.5-2.4-.3-1.2,.3-1.5,.4-2.1,.7 .3-.3 1.1-.7 .9-.7-1.4,.3-3,1.2-4.3,2.2 0-.1 0-.2 0-.4-.6,.3-2.2,1.5-2.6,2.4 0-.2 0-.3 0-.5-.4,.4-.9,.9-1.3,1.4-4-1-7.5-.8-10.4,.2-1-.8-2.4-2.2-3.5-3.9-.1-.2-.1,.4-.2,.2-.6-1.1-1.2-2.9-1.3-4.4 0-.1 0-.3 0-.4 0,0-.5,.3-1.1,1.3-.3,.4-.5,1-.7,1.7-.1,.4-.2,.6-.3,.9 0,.1 .1-.7 0-.7-.1,.3-.5,.7-.7,1.3-.1,.4-.3,.6-.3,1.1 0-.1 0-.6-.1-.5-.3,.9-.6,1.9-.9,3-.2,.8-.4,1.8-.5,2.8-.1,1.2-.1,2.6 0,4.2 0,.2 0,.5 0,.7-1.1,1.5-1.8,2.8-2,3.4-1.3,2.4-2.6,6.4-3.7,12.6 0,0 .7-2.3 2.2-4.9 0,0 0,.1 0,.1-1.1,3.3-2,8.4-1.5,16.1 0-.3 .2-2.2 .8-4.9 .3,5.2 1.8,11.4 5.8,18.3 2.9,5.1 6.4,8.8 10.3,11.7 .7,.6 1.4,1.1 2.2,1.7 4.8,3.5 12.3,7.8 18.6,8.7-2.2-.6-3.6-1.9-3.6-1.9s7.6,2.4 13.2,2.2c-1.7-.3-2.1-1.1-2.1-1.1s15.7,.9 23.9-5.6c1.8-1.4 3-3 3.4-4.4 2.4-1.3 5-3 7.7-5.7 4.4-4.4 4.9-7.7 5.4-10.8 0,.1 0,.2-.1,.3 .2-1.3 .1-2.4-.4-3.2z"/>
</svg>
