<?xml version="1.0" encoding="utf-8"?>
<!-- Generator: Adobe Illustrator 17.1.0, SVG Export Plug-In . SVG Version: 6.00 Build 0)  -->
<!DOCTYPE svg PUBLIC "-//W3C//DTD SVG 1.1//EN" "http://www.w3.org/Graphics/SVG/1.1/DTD/svg11.dtd">
<svg version="1.1" id="Layer_1" xmlns="http://www.w3.org/2000/svg" xmlns:xlink="http://www.w3.org/1999/xlink" x="0px" y="0px"
	 viewBox="0 0 100 100" style="enable-background:new 0 0 100 100;" xml:space="preserve">
<style type="text/css">
	.st0{opacity:0.5;fill:#FFFFFF;}
	.st1{fill:#FFFFFF;}
</style>
<g>
	<g>
		<path class="st0" d="M50.6,61.3c-5.3,0-10.5-1.5-15-4.2c-1.2-0.7-1.6-2.3-0.9-3.5c0.7-1.2,2.3-1.6,3.5-0.8c3.7,2.3,8,3.5,12.3,3.5
			c13.1,0,23.7-10.6,23.7-23.7c0-1.4,1.2-2.6,2.6-2.6c1.4,0,2.6,1.2,2.6,2.6C79.5,48.3,66.5,61.3,50.6,61.3z"/>
	</g>
	<path class="st1" d="M84,93.1L61.7,42.1c2.2-2.6,3.5-5.9,3.5-9.6c0-7.4-5.4-13.5-12.4-14.7V9.2c0-1.4-1.1-2.6-2.6-2.6
		c-1.4,0-2.6,1.2-2.6,2.6v8.7c-7,1.3-12.3,7.3-12.3,14.7c0,3.4,1.1,6.5,3,9L15.9,93.1h2.8l26-46.9c1.8,0.7,3.7,1.1,5.7,1.1
		c1.8,0,3.5-0.3,5.1-0.9l25.8,46.7H84z M41.8,32.5c0-4.7,3.8-8.5,8.5-8.5c4.7,0,8.5,3.8,8.5,8.5c0,4.7-3.8,8.5-8.5,8.5
		C45.7,41,41.8,37.1,41.8,32.5z"/>
</g>
</svg>
