<svg xmlns="http://www.w3.org/2000/svg" viewBox="0 0 100 100" xmlns:xlink="http://www.w3.org/1999/xlink" enable-background="new 0 0 100 100">
<g fill="#fff">
<path opacity=".5" d="m50.6,61.3c-5.3,0-10.5-1.5-15-4.2-1.2-.7-1.6-2.3-.9-3.5 .7-1.2 2.3-1.6 3.5-.8 3.7,2.3 8,3.5 12.3,3.5 13.1,0 23.7-10.6 23.7-23.7 0-1.4 1.2-2.6 2.6-2.6 1.4,0 2.6,1.2 2.6,2.6 .1,15.7-12.9,28.7-28.8,28.7z"/>
<path d="m84,93.1l-22.3-51c2.2-2.6 3.5-5.9 3.5-9.6 0-7.4-5.4-13.5-12.4-14.7v-8.6c0-1.4-1.1-2.6-2.6-2.6-1.4,0-2.6,1.2-2.6,2.6v8.7c-7,1.3-12.3,7.3-12.3,14.7 0,3.4 1.1,6.5 3,9l-22.4,51.5h2.8l26-46.9c1.8,.7 3.7,1.1 5.7,1.1 1.8,0 3.5-.3 5.1-.9l25.8,46.7h2.7zm-42.2-60.6c0-4.7 3.8-8.5 8.5-8.5 4.7,0 8.5,3.8 8.5,8.5 0,4.7-3.8,8.5-8.5,8.5-4.6,0-8.5-3.9-8.5-8.5z"/>
</g>
</svg>
