<?xml version="1.0" encoding="utf-8"?>
<!-- Generator: Adobe Illustrator 17.1.0, SVG Export Plug-In . SVG Version: 6.00 Build 0)  -->
<!DOCTYPE svg PUBLIC "-//W3C//DTD SVG 1.1//EN" "http://www.w3.org/Graphics/SVG/1.1/DTD/svg11.dtd">
<svg version="1.1" id="Layer_1" xmlns="http://www.w3.org/2000/svg" xmlns:xlink="http://www.w3.org/1999/xlink" x="0px" y="0px"
	 viewBox="0 0 100 100" style="enable-background:new 0 0 100 100;" xml:space="preserve">
<style type="text/css">
	.st0{fill:#FFFFFF;}
	.st1{opacity:0.5;fill:#FFFFFF;}
</style>
<g>
	<path class="st0" d="M77.1,58.1c-0.4-8.4-7.6-26.7-7.7-27.7c-0.2,2.9-1.7,7.2-4.6,8.3c-1,0.4-2.7,0.6-4.1,0.1
		c-3.6-1.4-4.9-5.1-5.3-8.3c-0.9-7.2,0.6-16.1,3.3-22.8C38,22.7,29.3,38.2,27.4,42.2c-7.9,17.4-3,33.6,5.4,42.1
		c3.3,3.4,5.5,6.2,8.3,8c-8.8-10.2-3.6-23.2-1.6-27.1c1-2,4.4-7.2,6.1-9.1c1.2-1.4,0.7-1,2,0.2c3.1,3.1,5.9,6.4,9.3,9.4
		c5.7,5.1,11.5,13.7,9,21.8c-0.1,0.3-0.2,0.5-0.3,0.8C73.9,81.4,77.6,69.5,77.1,58.1z"/>
	<path class="st1" d="M56.1,79.1c-1.3-3.2-4.4-7.3-7.6-10.1c1.7,8.2-2.7,9.9-1.9,16c0.3,2,2.4,4.9,5.6,4.4
		C56,88.8,57.9,83.5,56.1,79.1z"/>
</g>
</svg>
