<?xml version="1.0" encoding="utf-8"?>
<!-- Generator: Adobe Illustrator 17.1.0, SVG Export Plug-In . SVG Version: 6.00 Build 0)  -->
<!DOCTYPE svg PUBLIC "-//W3C//DTD SVG 1.1//EN" "http://www.w3.org/Graphics/SVG/1.1/DTD/svg11.dtd">
<svg version="1.1" id="Layer_1" xmlns="http://www.w3.org/2000/svg" xmlns:xlink="http://www.w3.org/1999/xlink" x="0px" y="0px"
	 viewBox="0 0 100 100" style="enable-background:new 0 0 100 100;" xml:space="preserve">
<style type="text/css">
	.st0{opacity:0.5;}
	.st1{fill:#FFFFFF;}
</style>
<g>
	<g class="st0">
		<path class="st1" d="M38.2,45.3c-0.7,0-1.3-0.5-1.4-1.2c-0.8-8.6,0.9-20.6,8.2-26.1c0.6-0.4,1.5-0.3,1.9,0.3
			c0.5,0.6,0.3,1.5-0.3,1.9c-6,4.5-7.9,15.1-7.1,23.7c0.1,0.7-0.5,1.4-1.2,1.5C38.3,45.3,38.2,45.3,38.2,45.3z"/>
		<path class="st1" d="M37.6,46.2c-0.4,0-0.7-0.2-1-0.5c-5-5.5-16.5-9.6-27.9-6.4c-0.7,0.2-1.5-0.2-1.7-0.9c-0.2-0.7,0.2-1.5,1-1.7
			c12.7-3.6,25,0.9,30.7,7.2c0.5,0.6,0.5,1.4-0.1,1.9C38.2,46.1,37.9,46.2,37.6,46.2z"/>
		<path class="st1" d="M39.4,45.2c-0.3,0-0.6-0.1-0.8-0.3c-0.6-0.4-0.8-1.3-0.3-1.9c4.6-6.4,17.1-11,29.1-7.2c0.7,0.2,1.1,1,0.9,1.7
			c-0.2,0.7-1,1.1-1.7,0.9c-10.5-3.3-22,0.5-26,6.2C40.2,45,39.8,45.2,39.4,45.2z"/>
		<path class="st1" d="M78.1,65.8c-0.8,0-1.4-0.6-1.4-1.4c0-5.8,4.1-22,14.1-28c0.6-0.4,1.5-0.2,1.9,0.5c0.4,0.6,0.2,1.5-0.5,1.9
			c-8.4,5-12.8,19.4-12.8,25.7C79.4,65.2,78.8,65.8,78.1,65.8z"/>
		<path class="st1" d="M77.1,65.3c-0.4,0-0.9-0.2-1.1-0.6C65.9,49.5,56.4,44.5,39.7,45.6c-0.8,0-1.4-0.5-1.5-1.3
			c-0.1-0.8,0.5-1.4,1.3-1.5c17.6-1.2,28.1,4.3,38.8,20.3c0.4,0.6,0.2,1.5-0.4,1.9C77.7,65.2,77.4,65.3,77.1,65.3z"/>
		<path class="st1" d="M55.7,84.3c-0.7,0-1.3-0.6-1.4-1.3c-0.7-10.6-8.1-29.3-16.2-36.5c-0.6-0.5-0.6-1.4-0.1-1.9
			c0.5-0.6,1.4-0.6,1.9-0.1c8.7,7.7,16.4,27,17.1,38.3C57.1,83.6,56.5,84.3,55.7,84.3C55.7,84.3,55.7,84.3,55.7,84.3z"/>
		<path class="st1" d="M25.3,71.4c-0.4,0-0.8-0.2-1.1-0.5c-0.5-0.6-0.4-1.5,0.2-1.9C34,61.6,59,56.1,78,63.8c0.7,0.3,1,1.1,0.8,1.8
			c-0.3,0.7-1.1,1-1.8,0.8c-18.2-7.4-41.9-2.2-50.8,4.8C25.9,71.3,25.6,71.4,25.3,71.4z"/>
		<path class="st1" d="M25.4,70.5c-0.7,0-1.3-0.6-1.4-1.3c-0.4-5.5,0.5-11.2,2.5-15.6c2.4-5.3,6.2-8.7,11-9.8c0.7-0.2,1.5,0.3,1.6,1
			c0.2,0.7-0.3,1.5-1,1.6c-8.5,1.9-12.2,12.8-11.5,22.6c0.1,0.8-0.5,1.4-1.3,1.5C25.5,70.5,25.5,70.5,25.4,70.5z"/>
		<path class="st1" d="M56,84.4c0,0-0.1,0-0.1,0c-0.8-0.1-1.3-0.7-1.3-1.5c0.1-1.3,0.2-2.5,0.3-3.8c1.3-18.8,2.5-35.1,37.2-43.3
			c0.7-0.2,1.5,0.3,1.6,1c0.2,0.7-0.3,1.5-1,1.7C60,46.2,58.9,60.8,57.6,79.3c-0.1,1.3-0.2,2.5-0.3,3.8C57.3,83.8,56.7,84.4,56,84.4
			z"/>
	</g>
	<path class="st1" d="M30.1,70c0,2.6-2.1,4.8-4.8,4.8c-2.7,0-4.8-2.1-4.8-4.8c0-2.6,2.1-4.8,4.8-4.8C28,65.3,30.1,67.4,30.1,70z"/>
	<path class="st1" d="M70.8,36.8c0,2.6-2.1,4.8-4.8,4.8c-2.6,0-4.8-2.1-4.8-4.8c0-2.6,2.1-4.8,4.8-4.8C68.6,32,70.8,34.2,70.8,36.8z
		"/>
	<path class="st1" d="M60.6,83c0,2.7-2.1,4.8-4.8,4.8c-2.6,0-4.8-2.1-4.8-4.8c0-2.6,2.1-4.8,4.8-4.8C58.5,78.2,60.6,80.4,60.6,83z"
		/>
	<path class="st1" d="M82.8,65c0,2.6-2.1,4.8-4.8,4.8c-2.6,0-4.8-2.2-4.8-4.8c0-2.7,2.1-4.8,4.8-4.8C80.7,60.2,82.8,62.3,82.8,65z"
		/>
	<path class="st1" d="M97.2,37.1c0,2.6-2.1,4.8-4.8,4.8c-2.6,0-4.8-2.1-4.8-4.8c0-2.6,2.1-4.8,4.8-4.8C95,32.3,97.2,34.5,97.2,37.1z
		"/>
	<path class="st1" d="M43.3,44.8c0,2.6-2.1,4.8-4.8,4.8c-2.7,0-4.8-2.1-4.8-4.8c0-2.6,2.1-4.8,4.8-4.8C41.2,40,43.3,42.2,43.3,44.8z
		"/>
	<path class="st1" d="M52.1,16.6c0.4,2.6-1.4,5.1-4,5.5c-2.6,0.4-5.1-1.4-5.5-4c-0.4-2.6,1.4-5.1,4-5.5C49.3,12.2,51.7,14,52.1,16.6
		z"/>
	<path class="st1" d="M12.2,38.3c0,2.6-2.1,4.8-4.8,4.8c-2.7,0-4.8-2.1-4.8-4.8c0-2.6,2.1-4.8,4.8-4.8C10,33.5,12.2,35.6,12.2,38.3z
		"/>
</g>
</svg>
