<?xml version="1.0" encoding="utf-8"?>
<!-- Generator: Adobe Illustrator 17.1.0, SVG Export Plug-In . SVG Version: 6.00 Build 0)  -->
<!DOCTYPE svg PUBLIC "-//W3C//DTD SVG 1.1//EN" "http://www.w3.org/Graphics/SVG/1.1/DTD/svg11.dtd">
<svg version="1.1" id="Layer_1" xmlns="http://www.w3.org/2000/svg" xmlns:xlink="http://www.w3.org/1999/xlink" x="0px" y="0px"
	 viewBox="0 0 100 100" style="enable-background:new 0 0 100 100;" xml:space="preserve">
<style type="text/css">
	.st0{fill:#FFFFFF;}
	.st1{opacity:0.5;fill:#FFFFFF;}
</style>
<g>
	<path class="st0" d="M70.5,53.3c-0.6-0.4-1.9-1.4-3.6-2.8l-9.3-6.8c-0.1,0-0.2,0-0.3,0c-2,0-7.4,0.2-13.7,2.3
		c-1.9,0.6-3.8,0.9-5.7,0.9c-3.8,0-7.3-1.4-8.2-3.4c-0.4-0.8-0.3-1.7,0.2-2.4c1.1-1.4,11.7-7.6,19.7-10.9c-5.2-2-13.5,0.9-15.5,1.3
		C18,34.3,2.9,25.1,2.9,25.1s0,11.8,0,22.1c11.7,6,11.5,13.7,20.3,20c9.3,6.7,13.8,8.1,13.8,8.1c3.8,2.3,9.1,0.3,11.4-0.9l-12.9-7.7
		c-0.6-0.3-0.8-1.1-0.4-1.7c0.3-0.6,1.1-0.8,1.7-0.4l13.2,7.9c0,0,1,0.6,1,0.6c0.7,0.3,3,1.4,4.5,0.7c1-0.4,3.3-1.4,4.9-2.1L46,63.2
		c-0.6-0.3-0.8-1.1-0.4-1.7c0.3-0.6,1.1-0.8,1.7-0.4l15.7,9.4c0.3,0.1,2.2,0.7,4.4-0.2c1.7-0.7,3.8-1.6,5.2-2.2l-16.3-9.8
		c-0.6-0.3-0.8-1.1-0.4-1.7c0.3-0.6,1.1-0.8,1.7-0.4c3.8,2.2,7.5,4.5,11.3,6.7c2.1,1.3,4.3,2.6,6.4,3.8c2.4,1.4,4.4,0.8,6.4-1.2
		c0.9-0.9,2-2.4,1.1-3.6c-0.2-0.2-0.8-0.7-1.6-1.4l-2.8-2C75.4,56.7,72,54.4,70.5,53.3z"/>
	<path class="st1" d="M64.3,30.9c-1.7,0-3.3-0.1-4.6-0.1c-1,0-2-0.1-2.8-0.1c-4.8,0-22.5,9.9-24.9,11.9c0.5,0.6,2.5,1.9,5.9,1.9
		c1.6,0,3.2-0.3,4.9-0.8c6.6-2.2,12.3-2.4,14.5-2.4c0.5,0,0.7,0,0.7,0l0.4,0l0.3,0.2l21.8,15.8c1.8-3,7-9.9,16.8-10.5l-0.3-23.8
		C83.4,30,71.9,30.9,64.3,30.9z"/>
</g>
</svg>
