<?xml version="1.0" encoding="utf-8"?>
<!-- Generator: Adobe Illustrator 17.1.0, SVG Export Plug-In . SVG Version: 6.00 Build 0)  -->
<!DOCTYPE svg PUBLIC "-//W3C//DTD SVG 1.1//EN" "http://www.w3.org/Graphics/SVG/1.1/DTD/svg11.dtd">
<svg version="1.1" id="Layer_1" xmlns="http://www.w3.org/2000/svg" xmlns:xlink="http://www.w3.org/1999/xlink" x="0px" y="0px"
	 viewBox="0 0 100 100" style="enable-background:new 0 0 100 100;" xml:space="preserve">
<style type="text/css">
	.st0{fill-rule:evenodd;clip-rule:evenodd;fill:#FFFFFF;}
	.st1{opacity:0.5;fill:#FFFFFF;}
</style>
<g>
	<path class="st0" d="M50.5,50.8c-8-11.9-23.9-5-23.9,8.1c0,8.8,7.9,15.1,13.9,19.8c6.2,4.9,8,6,9.9,7.9c2-2,3.7-3.1,9.9-7.9
		c6.1-4.6,13.9-11.1,13.9-19.9C74.3,45.9,58.4,38.9,50.5,50.8"/>
	<path class="st1" d="M50.9,33.5c-1.3,0-2.3-1.1-2.3-2.4V16.4c0-1.3,1-2.4,2.3-2.4s2.4,1.1,2.4,2.4v14.8
		C53.3,32.5,52.2,33.5,50.9,33.5z"/>
	<path class="st1" d="M68.8,35.5c-0.4,0-0.7-0.1-1.1-0.3c-1.2-0.6-1.6-2-1-3.2l6.8-13.1c0.6-1.1,2-1.6,3.2-1c1.1,0.6,1.6,2,1,3.2
		l-6.8,13.1C70.4,35,69.6,35.5,68.8,35.5z"/>
	<path class="st1" d="M82.5,47.7c-0.7,0-1.5-0.4-1.9-1c-0.8-1.1-0.5-2.5,0.6-3.3l12.1-8.5c1.1-0.8,2.5-0.5,3.3,0.6
		c0.7,1.1,0.5,2.5-0.6,3.3l-12.1,8.5C83.5,47.5,83,47.7,82.5,47.7z"/>
	<path class="st1" d="M32.4,35.5c-0.9,0-1.7-0.5-2.1-1.3l-6.8-13.1c-0.6-1.1-0.1-2.6,1-3.2c1.2-0.6,2.6-0.1,3.2,1L34.4,32
		c0.6,1.2,0.1,2.6-1,3.2C33.1,35.4,32.7,35.5,32.4,35.5z"/>
	<path class="st1" d="M18.6,47.7c-0.5,0-0.9-0.1-1.4-0.4L5.1,38.7c-1.1-0.7-1.3-2.2-0.6-3.3c0.7-1.1,2.2-1.3,3.3-0.6l12.1,8.5
		c1.1,0.8,1.3,2.2,0.6,3.3C20,47.3,19.3,47.7,18.6,47.7z"/>
</g>
</svg>
