<?xml version="1.0" encoding="utf-8"?>
<!-- Generator: Adobe Illustrator 17.1.0, SVG Export Plug-In . SVG Version: 6.00 Build 0)  -->
<!DOCTYPE svg PUBLIC "-//W3C//DTD SVG 1.1//EN" "http://www.w3.org/Graphics/SVG/1.1/DTD/svg11.dtd">
<svg version="1.1" id="Layer_1" xmlns="http://www.w3.org/2000/svg" xmlns:xlink="http://www.w3.org/1999/xlink" x="0px" y="0px"
	 viewBox="0 0 100 100" style="enable-background:new 0 0 100 100;" xml:space="preserve">
<style type="text/css">
	.st0{opacity:0.5;fill:#FFFFFF;}
	.st1{fill:#FFFFFF;}
</style>
<g>
	<polygon class="st0" points="77.2,25.1 77.2,6.6 65.1,6.6 65.1,14.7 51.1,2.8 15.9,32.2 15.9,89.5 85.6,89.5 85.6,32.2 	"/>
	<g>
		<polygon class="st1" points="15.7,61.2 9.6,55.8 4,61.2 4,96.6 15.7,96.6 		"/>
		<polygon class="st1" points="36.2,61.2 30.2,55.8 24.6,61.2 24.6,96.6 36.2,96.6 		"/>
		<polygon class="st1" points="56.8,61.2 50.7,55.8 45.1,61.2 45.1,96.6 56.8,96.6 		"/>
		<polygon class="st1" points="77.3,61.2 71.2,55.8 65.7,61.2 65.7,96.6 77.3,96.6 		"/>
	</g>
	<g>
		<polygon class="st1" points="97.2,61.2 91.1,55.8 85.5,61.2 85.5,96.6 97.2,96.6 		"/>
	</g>
</g>
</svg>
