<svg xmlns="http://www.w3.org/2000/svg" viewBox="0 0 100 100" xmlns:xlink="http://www.w3.org/1999/xlink" enable-background="new 0 0 100 100">
<g fill="#fff">
<path opacity=".5" d="m77.2,25.1 0-18.5-12.1,0 0,8.1-14-11.9-35.2,29.4 0,57.3 69.7,0 0-57.3z"/>
<path d="m15.7,61.2-6.1-5.4-5.6,5.4 0,35.4 11.7,0z"/>
<path d="m36.2,61.2-6-5.4-5.6,5.4 0,35.4 11.6,0z"/>
<path d="m56.8,61.2-6.1-5.4-5.6,5.4 0,35.4 11.7,0z"/>
<path d="m77.3,61.2-6.1-5.4-5.5,5.4 0,35.4 11.6,0z"/>
<path d="m97.2,61.2-6.1-5.4-5.6,5.4 0,35.4 11.7,0z"/>
</g>
</svg>
