<?xml version="1.0" encoding="utf-8"?>
<!-- Generator: Adobe Illustrator 17.1.0, SVG Export Plug-In . SVG Version: 6.00 Build 0)  -->
<!DOCTYPE svg PUBLIC "-//W3C//DTD SVG 1.1//EN" "http://www.w3.org/Graphics/SVG/1.1/DTD/svg11.dtd">
<svg version="1.1" id="Layer_1" xmlns="http://www.w3.org/2000/svg" xmlns:xlink="http://www.w3.org/1999/xlink" x="0px" y="0px"
	 viewBox="0 0 100 100" style="enable-background:new 0 0 100 100;" xml:space="preserve">
<style type="text/css">
	.st0{opacity:0.4;fill:#FFFFFF;}
	.st1{fill:#FFFFFF;}
</style>
<g>
	<path class="st0" d="M45.6,41.4V26.5C35.4,26.9,26.2,31,19.1,37.4L29.6,48C33.9,44.2,39.5,41.8,45.6,41.4z"/>
	<path class="st0" d="M66.3,48.9l11-10c-7.2-7.3-17.1-11.9-28-12.4v14.9C55.9,41.8,61.8,44.6,66.3,48.9z"/>
	<path class="st0" d="M5.3,68.6h14.9c0-6.9,2.6-13.2,6.8-18L16.5,40C9.5,47.5,5.3,57.6,5.3,68.6z"/>
	<path class="st1" d="M74.7,68.6h14.9c0-3.2-0.4-6.4-1.1-9.4c-4,2.1-9,4.6-13.9,7.1C74.7,67.1,74.7,67.8,74.7,68.6z"/>
	<path class="st1" d="M79.8,41.6l-11,10.1c0.4,0.6,0.9,1.1,1.3,1.7c5.6-0.7,11.3-1.4,15.9-1.9C84.3,47.9,82.3,44.6,79.8,41.6z"/>
	<path class="st1" d="M86.9,53.8c-4.4,0.5-10,1.2-15.5,1.9c-10.2,1.3-20.2,2.6-22,3.2l-0.7,0.2c-4,1.2-6.3,5.5-5.1,9.5
		c0.1,0.4,0.3,0.7,0.4,1.1c0,0.1,0.1,0.1,0.1,0.2c0.2,0.3,0.4,0.6,0.6,0.9c0,0,0.1,0.1,0.1,0.1c0.2,0.3,0.4,0.5,0.7,0.8
		c0,0,0,0,0.1,0.1c0.3,0.2,0.5,0.5,0.8,0.7c0.1,0,0.1,0.1,0.2,0.1c0.3,0.2,0.6,0.4,0.9,0.6c0,0,0.1,0,0.1,0.1
		c0.3,0.1,0.6,0.3,0.9,0.4c0.1,0,0.1,0,0.2,0.1c0.3,0.1,0.7,0.2,1,0.2c0.1,0,0.1,0,0.2,0c0.4,0,0.7,0.1,1.1,0.1c0,0,0.1,0,0.1,0
		c0.3,0,0.6,0,0.9-0.1c0.1,0,0.2,0,0.2,0c0.3-0.1,0.7-0.1,1-0.2l0.7-0.2c1.9-0.6,11.1-5.1,20.4-9.8c4.9-2.4,9.8-4.9,13.6-6.9
		c4.6-2.4,7.8-4,7.8-4S92.1,53.2,86.9,53.8z"/>
</g>
</svg>
