<svg width="450" xmlns="http://www.w3.org/2000/svg" height="340" viewBox="0 0 450 340" xmlns:xlink="http://www.w3.org/1999/xlink">
<g fill-rule="evenodd">
<g fill="none" transform="translate(19 110)">
<path fill="#1a2857" d="m135.4,66.9c0-14.3 4-27.6 10.9-38.9l-45.4-27.8c-11.9,19.4-18.8,42.2-18.8,66.7 0,6.2 .5,12.3 1.3,18.3l52.7-7.6c-.5-3.5-.7-7.1-.7-10.7Z"/>
</g>
<g fill="#fff" transform="translate(117 142)">
<path opacity=".5" d="m24,9.2l2.5-2.2-2.5-2h-9.6v4.2h9.6Z"/>
<path opacity=".5" d="m2.7,9.5l-2.6,2.2 2.6,2h9.6v-4.2h-9.6Z"/>
<path d="m22.1,18.4l2.6-.8-2.6-3.4-7.7-4.3v-8c0-.6-.5-1-1-1-.6,0-1,.5-1,1v2.6l-7.7-4.3-2.7,.7 2.6,3.4 7.7,4.3v21.2c0,.6 .5,1 1,1 .6,0 1-.5 1-1v-10l4.7,2.6 2.6-.8-2.6-3.4-4.7-2.6v-1.5l7.8,4.3Z"/>
</g>
<g fill="none">
<g transform="translate(19 110)">
<text font-family="Open Sans" fill="#f7f7f7" font-size="10"><tspan x="13.242" y="38">Makes sense</tspan><tspan x="18.291" y="52">of the web</tspan>
</text>
</g>
<g transform="translate(64 43)">
<path fill="#682666" d="m122.3,13.5c-27.8,9.8-51.2,28.9-66.4,53.7l45.4,27.8c8.9-14.4 22.5-25.6 38.7-31.4l-17.7-50.1Z"/>
</g>
</g>
<g fill="#fff" transform="translate(148 90)">
<path opacity=".4" d="m15.4,5.3v-5.8c-4,.2-7.6,1.8-10.3,4.3l4.1,4.1c1.7-1.4 3.9-2.4 6.2-2.6Z"/>
<path opacity=".4" d="m23.5,8.3l4.3-3.9c-2.8-2.8-6.7-4.6-10.9-4.8v5.8c2.6,.1 4.9,1.2 6.6,2.9Z"/>
<path opacity=".4" d="m-.3,16h5.8c0-2.7 1-5.2 2.7-7l-4.1-4.1c-2.8,2.9-4.4,6.8-4.4,11.1Z"/>
<path d="m26.8,16h5.8c0-1.3-.1-2.5-.4-3.7-1.6,.8-3.5,1.8-5.4,2.8v.9Z"/>
<path d="m28.8,5.4l-4.3,3.9c.2,.2 .3,.4 .5,.7 2.2-.3 4.4-.5 6.2-.8-.6-1.3-1.4-2.6-2.4-3.8Z"/>
<path d="m31.6,10.2c-1.7,.2-3.9,.5-6,.7-4,.5-7.9,1-8.6,1.2l-.3,.1c-1.6,.5-2.5,2.1-2,3.7 0,.1 .1,.3 .2,.4v.1c.1,.1 .1,.2 .2,.4 0,0 0,0 0,.1l.3,.3 .3,.3h.1c.1,.1 .2,.2 .3,.2h.1c.1,.1 .2,.1 .4,.1h.1c.1,0 .3,.1 .4,.1h.1 .4 .4 .1c.1,0 .3,0 .4-.1l.3-.1c.7-.2 4.3-2 8-3.8 1.9-1 3.8-1.9 5.3-2.7 1.8-.9 3-1.6 3-1.6 0,0-1.5,.4-3.5,.6Z"/>
</g>
<g fill="none">
<g transform="translate(64 43)">
<text font-family="Open Sans" fill="#f7f7f7" font-size="10"><tspan x="19.03" y="11.5">High user-</tspan><tspan x="12.648" y="25.5">performance</tspan>
</text>
</g>
<g transform="translate(186 11)">
<path fill="#c43b32" d="m42.9,91.4c8.6,0 17,1.5 24.7,4.2l17.7-50.1c-13.3-4.7-27.6-7.3-42.5-7.3-14.9,0-29.2,2.6-42.4,7.3l17.6,50.1c7.8-2.7 16.2-4.2 24.9-4.2Z"/>
</g>
</g>
<g fill="#fff">
<g transform="translate(218 65)">
<path opacity=".5" d="m19.2,5.6v-4.8h-3.1v2.1l-3.6-3-9.1,7.6v14.8h18v-14.8l-2.2-1.9Z"/>
</g>
<g transform="translate(218 79)">
<path d="m3.3,1l-1.6-1.4-1.4,1.4v9.1h3v-9.1Z"/>
<path d="m8.6,1l-1.6-1.4-1.4,1.4v9.1h3v-9.1Z"/>
<path d="m13.9,1l-1.6-1.4-1.4,1.4v9.1h3v-9.1Z"/>
<path d="m19.2,1l-1.5-1.4-1.5,1.4v9.1h3v-9.1Z"/>
</g>
<g transform="translate(218 65)">
<path d="m24.4,15l-1.6-1.4-1.4,1.4v9.1h3v-9.1Z"/>
</g>
</g>
<g fill="none">
<g transform="translate(186 11)">
<text font-family="Open Sans" fill="#f7f7f7" font-size="10"><tspan x="4.012" y="11.5">Takes care of you</tspan>
</text>
</g>
<g transform="translate(253 42)">
<path fill="#e65525" d="m39.2,95.7l45.1-27.9c-15.2-24.6-38.5-43.6-66.1-53.3l-17.7,50.1c16.2,5.6 29.9,16.7 38.7,31.1Z"/>
</g>
<g transform="translate(273 86)">
<path fill="#fff" d="m34.9,6c.3-1.4 .1-2.7-.7-3.9-1.1-1.7-3-2.6-5-2.4-.8,.1-1.5,.4-2.2,.8l-4.7,2.9-3.9,2.4 3,4.7-6.2-.8-.7-1.1c-.3-.4-.8-.5-1.2-.3-.4,.3-.5,.8-.3,1.2l2.8,4.5c.2,.3 .5,.4 .9,.4 .1,0 .3-.1 .4-.1 .4-.3 .5-.8 .3-1.2l-.4-.6 7.4,2.7 1.7,2.6 8.6-5.4-1.9-3c1-.9 1.8-2 2.1-3.4Zm-1.7-.4c-.2,.9-.7,1.6-1.5,2.1l-3.7-5.7c.4-.3 .9-.4 1.4-.5 1.3-.2 2.6,.5 3.3,1.6 .5,.7 .6,1.6 .5,2.5Z"/>
</g>
<g stroke="#fff" stroke-width="1.733" transform="translate(273 86)">
<path opacity=".5" d="m3.8,23.6c-.8-5.8 4.2-10 8.6-11"/>
<path opacity=".5" d="m10.2,25.6c-1.4-4.1-.1-8.5 3.8-10.7"/>
<path opacity=".5" d="m.4,17.7c.7-5 5.6-8.2 10.6-7.5"/>
</g>
<g transform="translate(253 42)">
<text font-family="Open Sans" fill="#f7f7f7" font-size="10"><tspan x="76.858" y="10.8">You help</tspan><tspan x="79.91" y="24.8">make it</tspan>
</text>
</g>
<g transform="translate(292 110)">
<path fill="#f18b21" d="m45.4-.2l-45.1,27.9c7.1,11.4 11.1,24.8 11.1,39.2 0,3.7-.3,7.2-.8,10.8l52.4,7.6c.9-6 1.3-12.2 1.3-18.4 .1-24.6-6.9-47.6-18.9-67.1Z"/>
</g>
</g>
<g fill="#fff" transform="translate(310 149)">
<path d="m25.1,10.6c-.2-.2-.7-.5-1.3-1l-3.4-2.5h-.1c-.8,0-2.7,.1-5.1,.9-.7,.2-1.4,.3-2.1,.3-1.4,0-2.7-.5-3-1.3-.2-.3-.1-.6 .1-.9 .4-.5 4.3-2.8 7.3-4-1.9-.7-5,.3-5.7,.5-5.9,1-11.5-2.4-11.5-2.4v8.2c4.3,2.2 4.2,5.1 7.5,7.4 3.4,2.5 5.1,3 5.1,3 1.4,.8 3.4,.1 4.2-.3l-4.7-2.8c-.2-.1-.3-.4-.2-.6 .1-.2 .4-.3 .6-.2l4.9,2.9 .4,.2c.3,.1 1.1,.5 1.7,.3 .4-.2 1.2-.5 1.8-.8l-5.3-3.2c-.2-.1-.3-.4-.2-.6 .1-.2 .4-.3 .6-.2l5.8,3.5c.1,0 .8,.3 1.6-.1 .6-.3 1.4-.6 1.9-.8l-6-3.6c-.2-.1-.3-.4-.2-.6 .1-.2 .4-.3 .6-.2 1.4,.8 2.8,1.7 4.2,2.5 .8,.5 1.6,.9 2.4,1.4 .9,.5 1.6,.3 2.4-.4 .3-.3 .7-.9 .4-1.3-.1-.1-.3-.3-.6-.5l-1-.7c-1.2-.8-2.5-1.6-3.1-2.1Z"/>
<path opacity=".5" d="m22.9,2.4h-1.7-1c-1.8,0-8.3,3.6-9.2,4.4 .2,.2 .9,.7 2.2,.7 .6,0 1.2-.1 1.8-.3 2.4-.8 4.6-.9 5.3-.9h.3 .1l.1,.1 8.1,5.8c.7-1.1 2.6-3.7 6.2-3.9l-.1-8.8c-5.1,2.5-9.3,2.9-12.1,2.9Z"/>
</g>
<g fill="none">
<g transform="translate(292 110)">
<text font-family="Open Sans" fill="#f7f7f7" font-size="10"><tspan x="89.517" y="41">Plays well </tspan><tspan x="85.628" y="55">with others</tspan>
</text>
</g>
<g transform="translate(278 188)">
<path fill="#ffce02" d="m-.2,45.1l34.9,39.9c22.4-19.6 37.9-46.8 42.3-77.7l-52.4-7.6c-2.6,18-11.7,33.9-24.8,45.4Z"/>
</g>
</g>
<g fill="#fff" transform="translate(299 211)">
<path d="m18.4,14.9c-3.2-4.7-9.5-2-9.5,3.2 0,3.5 3.2,6 5.5,7.9 2.5,2 3.2,2.4 4,3.2 .8-.8 1.5-1.2 4-3.2 2.4-1.8 5.5-4.4 5.5-7.9 0-5.2-6.4-8-9.5-3.2"/>
<path opacity=".5" d="m18.6,8c-.5,0-.9-.4-.9-.9v-5.9c0-.5 .4-.9 .9-.9 .5,0 .9,.4 .9,.9v5.9c0,.5-.4,.9-.9,.9Z"/>
<path opacity=".5" d="m25.6,8.8c-.1,0-.3,0-.4-.1-.5-.2-.6-.8-.4-1.3l2.7-5.2c.2-.5 .8-.6 1.3-.4 .5,.2 .6,.8 .4,1.3l-2.7,5.2c-.2,.3-.5,.5-.9,.5Z"/>
<path opacity=".5" d="m31.1,13.6c-.3,0-.6-.1-.8-.4-.3-.4-.2-1 .2-1.3l4.8-3.4c.4-.3 1-.2 1.3,.2 .3,.4 .2,1-.2,1.3l-4.8,3.4c-.1,.2-.3,.2-.5,.2Z"/>
<path opacity=".5" d="m11.2,8.8c-.3,0-.7-.2-.8-.5l-2.7-5.2c-.2-.5-.1-1 .4-1.3 .5-.2 1-.1 1.3,.4l2.7,5.2c.2,.5 .1,1-.4,1.3-.2,0-.4,.1-.5,.1Z"/>
<path opacity=".5" d="m5.7,13.6c-.2,0-.4-.1-.5-.2l-4.8-3.4c-.4-.3-.5-.9-.2-1.3 .3-.4 .9-.5 1.3-.2l4.8,3.4c.4,.3 .5,.9 .2,1.3-.2,.3-.5,.4-.8,.4Z"/>
</g>
<g fill="none">
<g transform="translate(278 188)">
<text font-family="Open Sans" fill="#f7f7f7" font-size="10"><tspan x="87.686" y="60">Exuberance</tspan>
</text>
</g>
<g transform="translate(229 233)">
<path fill="#5bc1a5" d="m-.1,18.4c0,0-.1,0 0,0v53.1c32.1,0 61.4-11.9 83.8-31.5l-34.9-39.9c-13.1,11.4-30.2,18.3-48.9,18.3Z"/>
</g>
</g>
<g fill="#fff" transform="translate(253 256)">
<path opacity=".5" d="m10.8,17.3c-1.7,0-3.3-.5-4.7-1.3-.4-.2-.5-.7-.3-1.1 .2-.4 .7-.5 1.1-.3 1.2,.7 2.5,1.1 3.9,1.1 4.1,0 7.4-3.3 7.4-7.4 0-.4 .4-.8 .8-.8 .4,0 .8,.4 .8,.8 0,5-4.1,9-9,9Z"/>
<path d="m21.2,27.3l-7-15.9c.7-.8 1.1-1.9 1.1-3 0-2.3-1.7-4.2-3.9-4.6v-2.8c0-.4-.4-.8-.8-.8-.4,0-.8,.4-.8,.8v2.7c-2.2,.4-3.8,2.3-3.8,4.6 0,1.1 .4,2 .9,2.8l-7.1,16.1h.9l8.1-14.6c.5,.2 1.2,.4 1.8,.4 .6,0 1.1-.1 1.6-.3l8.1,14.6h.9Zm-13.2-19c0-1.5 1.2-2.7 2.7-2.7 1.5,0 2.7,1.2 2.7,2.7 0,1.5-1.2,2.7-2.7,2.7-1.5,0-2.7-1.2-2.7-2.7Z"/>
</g>
<g fill="none">
<g transform="translate(229 233)">
<text font-family="Open Sans" fill="#f7f7f7" font-size="10"><tspan x="52.767" y="87">Finely crafted</tspan>
</text>
</g>
<g transform="translate(113 233)">
<path fill="#109ad6" d="m66.8,0l-35,40.1c22.4,19.6 51.8,31.5 83.9,31.5h.1v-53.1c-18.7-.1-35.9-7.1-49-18.5Z"/>
</g>
</g>
<g fill="#fff">
<g transform="translate(174 258)">
<path d="m12.5,11.1c-.3,0-.5-.2-.5-.5-.3-3.3 .3-7.9 3.1-10 .2-.2 .6-.1 .7,.1 .2,.2 .1,.6-.1,.7-2.3,1.7-3,5.8-2.7,9 0,.5-.2,.7-.5,.7Z"/>
<path d="m12.2,11.5c-.1,0-.3-.1-.4-.2-1.9-2.1-6.3-3.7-10.7-2.4-.3,.1-.6-.1-.6-.4-.1-.3 .1-.6 .4-.6 4.8-1.4 9.6,.4 11.7,2.7 .2,.2 .2,.5 0,.7-.1,.2-.2,.2-.4,.2Z"/>
<path d="m12.9,11.1c-.1,0-.2,0-.3-.1-.2-.2-.3-.5-.1-.7 1.8-2.4 6.5-4.2 11.1-2.7 .3,.1 .4,.4 .3,.7-.1,.3-.4,.4-.7,.3-4-1.3-8.4,.2-9.9,2.4-.1,0-.2,.1-.4,.1Z"/>
<path d="m27.7,19c-.3,0-.5-.2-.5-.5 0-2.2 1.6-8.4 5.4-10.7 .2-.1 .6-.1 .7,.2 .1,.2 .1,.6-.2,.7-3.2,1.9-4.9,7.4-4.9,9.8 0,.3-.2,.5-.5,.5Z"/>
<path d="m27.3,18.8c-.2,0-.3-.1-.4-.2-3.9-5.8-7.5-7.7-13.9-7.3-.3,0-.5-.2-.6-.5 0-.3 .2-.5 .5-.6 6.7-.4 10.7,1.7 14.8,7.8 .2,.2 .1,.6-.1,.7-.1,.1-.2,.1-.3,.1Z"/>
<path d="m19.1,26.1c-.3,0-.5-.2-.5-.5-.3-4.1-3.1-11.2-6.2-13.9-.2-.2-.2-.5 0-.7 .2-.2 .5-.2 .7,0 3.3,3 6.3,10.3 6.5,14.6 .1,.2-.1,.4-.5,.5Z"/>
<path d="m7.5,21.1c-.2,0-.3-.1-.4-.2-.2-.2-.1-.6 .1-.7 3.6-2.8 13.2-4.9 20.4-2 .3,.1 .4,.4 .3,.7-.1,.3-.4,.4-.7,.3-6.9-2.8-16-.8-19.4,1.8 0,.1-.1,.1-.3,.1Z"/>
<path d="m7.6,20.8c-.3,0-.5-.2-.5-.5-.2-2.1 .2-4.3 1-6 .9-2 2.4-3.3 4.2-3.7 .3-.1 .6,.1 .6,.4 .1,.3-.1,.6-.4,.6-3.2,.7-4.6,4.9-4.4,8.6 0,.3-.2,.6-.5,.6Z"/>
<path d="m19.2,26.1c-.3,0-.5-.3-.5-.6 0-.5 .1-1 .1-1.5 .5-7.2 1-13.4 14.2-16.5 .3-.1 .6,.1 .6,.4 .1,.3-.1,.6-.4,.6-12.5,3-12.9,8.5-13.4,15.6 0,.5-.1,1-.1,1.5 0,.3-.2,.5-.5,.5Z"/>
</g>
<g transform="translate(173 257)">
<circle cx="8.8" cy="21.8" r="1.8"/>
<circle cx="23.8" cy="8.8" r="1.8"/>
<path d="m22,26.6c0,1-.8,1.8-1.8,1.8-1,0-1.8-.8-1.8-1.8 0-1 .8-1.8 1.8-1.8 1-.1 1.8,.8 1.8,1.8Z"/>
<path d="m30.5,19.7c0,1-.8,1.8-1.8,1.8-1,0-1.8-.8-1.8-1.8 0-1 .8-1.8 1.8-1.8 1-.1 1.8,.8 1.8,1.8Z"/>
<circle cx="33.8" cy="8.8" r="1.8"/>
<circle cx="13.8" cy="11.8" r="1.8"/>
<circle cx="16.8" cy="1.8" r="1.8"/>
<circle cx="1.8" cy="9.8" r="1.8"/>
</g>
</g>
<g fill="none">
<g transform="translate(113 233)">
<text font-family="Open Sans" fill="#f7f7f7" font-size="10"><tspan x="27.966" y="86.5">Global</tspan>
</text>
</g>
<g transform="translate(21 187)">
<path fill="#005189" d="m134.1,.5l-52.7,7.6c4.4,30.9 20,58.3 42.4,77.9l35-40.1c-13.1-11.4-22.1-27.3-24.7-45.4Z"/>
</g>
</g>
<g fill="#fff" transform="translate(134 209)">
<path d="m18.1,17.2c-.1-2.9-2.6-9.2-2.6-9.5-.1,1-.6,2.5-1.6,2.9-.3,.1-.9,.2-1.4,0-1.2-.5-1.7-1.8-1.8-2.9-.3-2.5 .2-5.5 1.1-7.8-7.1,5.1-10.1,10.5-10.7,11.9-2.7,6-1,11.5 1.9,14.4 1.1,1.2 1.9,2.1 2.9,2.7-3-3.5-1.2-8-.6-9.3 .4-.7 1.5-2.5 2.1-3.1 .4-.5 .3-.4 .7,.1 1.1,1.1 2,2.2 3.2,3.2 2,1.7 3.9,4.7 3.1,7.5 0,.1-.1,.2-.1,.3 2.7-2.4 4-6.5 3.8-10.4Z"/>
<path opacity=".5" d="m10.9,24.4c-.4-1.1-1.5-2.5-2.6-3.5 .6,2.8-.9,3.4-.7,5.5 .1,.7 .8,1.7 1.9,1.5 1.4-.1 2-2 1.4-3.5Z"/>
</g>
<g fill="none" transform="translate(21 187)">
<text font-family="Open Sans" fill="#f7f7f7" font-size="10"><tspan x="6.276" y="61.07">Balances power</tspan><tspan x="10.964" y="75.07">and simplicity</tspan>
</text>
</g>
</g>
</svg>
