<svg xmlns="http://www.w3.org/2000/svg" viewBox="0 0 100 100" xmlns:xlink="http://www.w3.org/1999/xlink" enable-background="new 0 0 100 100">
<g fill="#fff">
<path opacity=".5" d="m81.1,31.6 7.5-6.4-7.5-5.8-27.8,0 0,12.2z"/>
<path opacity=".5" d="m19.5,32.5-7.4,6.3 7.4,5.8 27.8,0 0-12.1z"/>
<path d="m75.7,58.1l7.5-2.2-7.5-10-22.3-12.3v-23.3c0-1.7-1.3-3-3-3-1.7,0-3,1.4-3,3v7.5l-22.5-12.3-7.5,2.2 7.5,10 22.4,12.3v61.3c0,1.7 1.4,3 3,3 1.7,0 3-1.3 3-3v-29l13.7,7.6 7.5-2.2-7.5-10-13.7-7.6v-4.4l22.4,12.4z"/>
</g>
</svg>
