<?xml version="1.0" encoding="utf-8"?>
<!-- Generator: Adobe Illustrator 17.1.0, SVG Export Plug-In . SVG Version: 6.00 Build 0)  -->
<!DOCTYPE svg PUBLIC "-//W3C//DTD SVG 1.1//EN" "http://www.w3.org/Graphics/SVG/1.1/DTD/svg11.dtd">
<svg version="1.1" id="Layer_1" xmlns="http://www.w3.org/2000/svg" xmlns:xlink="http://www.w3.org/1999/xlink" x="0px" y="0px"
	 viewBox="0 0 100 100" style="enable-background:new 0 0 100 100;" xml:space="preserve">
<style type="text/css">
	.st0{opacity:0.5;fill:#FFFFFF;}
	.st1{fill:#FFFFFF;}
</style>
<g>
	<polygon class="st0" points="81.1,31.6 88.6,25.2 81.1,19.4 53.3,19.4 53.3,31.6 	"/>
	<polygon class="st0" points="19.5,32.5 12.1,38.8 19.5,44.6 47.3,44.6 47.3,32.5 	"/>
	<path class="st1" d="M75.7,58.1l7.5-2.2l-7.5-10L53.4,33.6V10.3c0-1.7-1.3-3-3-3c-1.7,0-3,1.4-3,3v7.5L24.9,5.5l-7.5,2.2l7.5,10
		L47.3,30v61.3c0,1.7,1.4,3,3,3c1.7,0,3-1.3,3-3V62.3l13.7,7.6l7.5-2.2l-7.5-10l-13.7-7.6v-4.4L75.7,58.1z"/>
</g>
</svg>
