<?xml version="1.0" encoding="UTF-8" standalone="no"?>
<svg viewBox="0 0 274 223" version="1.1" xmlns="http://www.w3.org/2000/svg" xmlns:xlink="http://www.w3.org/1999/xlink" xmlns:sketch="http://www.bohemiancoding.com/sketch/ns">
    <defs>
        <path id="path-1" d="M0.06,-0.178 L273.39,-0.178 L273.39,221.94 L0.06,221.94"></path>
    </defs>
    <g id="Page-1" stroke="none" stroke-width="1" fill="none" fill-rule="evenodd" sketch:type="MSPage">
        <g id="Twitter_logo_blue" sketch:type="MSLayerGroup" transform="translate(0.000000, 1.000000)">
            <mask id="mask-2" sketch:name="Clip 2" fill="white">
                <use xlink:href="#path-1"></use>
            </mask>
            <g id="Clip-2"></g>
            <path d="M85.98,222 C54.305,222 24.822,212.715 0,196.801 C4.388,197.319 8.853,197.584 13.38,197.584 C39.658,197.584 63.843,188.617 83.039,173.574 C58.495,173.121 37.781,156.905 30.644,134.621 C34.068,135.276 37.582,135.627 41.196,135.627 C46.312,135.627 51.267,134.942 55.974,133.66 C30.314,128.508 10.981,105.838 10.981,78.662 C10.981,78.426 10.981,78.191 10.985,77.957 C18.548,82.158 27.196,84.681 36.391,84.972 C21.341,74.914 11.438,57.746 11.438,38.287 C11.438,28.008 14.204,18.373 19.032,10.089 C46.696,44.023 88.025,66.353 134.641,68.692 C133.685,64.587 133.188,60.306 133.188,55.91 C133.188,24.935 158.302,-0.178 189.279,-0.178 C205.411,-0.178 219.988,6.634 230.22,17.535 C242.996,15.019 255,10.351 265.837,3.924 C261.649,17.021 252.756,28.013 241.175,34.955 C252.521,33.599 263.331,30.584 273.39,26.123 C265.87,37.371 256.36,47.25 245.402,55.158 C245.51,57.563 245.564,59.982 245.564,62.414 C245.564,136.533 189.148,222 85.98,222" id="Fill-1" fill="#5E9FCB" sketch:type="MSShapeGroup" mask="url(#mask-2)"></path>
        </g>
    </g>
</svg>