<svg xmlns="http://www.w3.org/2000/svg" viewBox="0 0 100 100" xmlns:xlink="http://www.w3.org/1999/xlink" enable-background="new 0 0 100 100">
<path fill="#fff" d="m96.6,31.1c.8-3.7 .2-7.5-1.9-10.6-2.9-4.6-8.2-7.1-13.6-6.5-2.1,.2-4.1,1-5.9,2.1l-12.8,7.8-10.7,6.5 8.1,12.8-16.8-2.3-2-3.1c-.7-1.1-2.2-1.5-3.3-.7-1.1,.7-1.4,2.2-.7,3.3l7.7,12.2c.5,.8 1.4,1.2 2.3,1.1 .4,0 .7-.2 1-.4 1.1-.7 1.4-2.2 .7-3.3l-1.1-1.7 20.1,7.4 4.6,7.2 23.3-14.9-5.2-8.1c3.2-2 5.4-5.1 6.2-8.8zm-4.7-1c-.5,2.4-2,4.5-4,5.8l-10-15.7c1.2-.7 2.5-1.2 3.8-1.4 3.5-.4 7.1,1.3 9,4.3 1.3,2 1.8,4.5 1.2,7z"/>
<g opacity=".5">
<path fill="#fff" d="m12.2,81.2c-1.2,0-2.2-.8-2.3-2-2.6-17.8 13.1-29.7 25-32.5 1.3-.3 2.5,.5 2.8,1.7 .3,1.3-.5,2.5-1.7,2.8-10.2,2.4-23.6,12.5-21.5,27.2 .2,1.3-.7,2.5-2,2.7-.1,.1-.2,.1-.3,.1z"/>
</g>
<g opacity=".5">
<path fill="#fff" d="m29.6,86.6c-1,0-1.9-.6-2.2-1.6-4.4-12.7 .2-25.5 11.3-31.7 1.1-.6 2.6-.2 3.2,.9 .6,1.1 .2,2.6-.9,3.2-9.1,5.1-12.8,15.6-9.2,26.1 .4,1.2-.2,2.6-1.5,3-.2,.1-.5,.1-.7,.1z"/>
</g>
<g opacity=".5">
<path fill="#fff" d="m3,65c-.1,0-.2,0-.3,0-1.3-.2-2.2-1.4-2-2.7 2-14.4 16.1-24.5 31.5-22.4 1.3,.2 2.2,1.4 2,2.7s-1.4,2.2-2.7,2c-12.8-1.7-24.5,6.5-26.2,18.4-.1,1.2-1.1,2-2.3,2z"/>
</g>
</svg>
