<?xml version="1.0" encoding="utf-8"?>
<!-- Generator: Adobe Illustrator 17.1.0, SVG Export Plug-In . SVG Version: 6.00 Build 0)  -->
<!DOCTYPE svg PUBLIC "-//W3C//DTD SVG 1.1//EN" "http://www.w3.org/Graphics/SVG/1.1/DTD/svg11.dtd">
<svg version="1.1" id="Layer_1" xmlns="http://www.w3.org/2000/svg" xmlns:xlink="http://www.w3.org/1999/xlink" x="0px" y="0px"
	 viewBox="0 0 100 100" style="enable-background:new 0 0 100 100;" xml:space="preserve">
<style type="text/css">
	.st0{fill:#FFFFFF;}
	.st1{opacity:0.5;}
</style>
<g>
	<path class="st0" d="M96.6,31.1c0.8-3.7,0.2-7.5-1.9-10.6c-2.9-4.6-8.2-7.1-13.6-6.5c-2.1,0.2-4.1,1-5.9,2.1l-12.8,7.8l-10.7,6.5
		l8.1,12.8l-16.8-2.3l-2-3.1c-0.7-1.1-2.2-1.5-3.3-0.7c-1.1,0.7-1.4,2.2-0.7,3.3l7.7,12.2c0.5,0.8,1.4,1.2,2.3,1.1
		c0.4,0,0.7-0.2,1-0.4c1.1-0.7,1.4-2.2,0.7-3.3l-1.1-1.7l20.1,7.4l4.6,7.2L95.6,48l-5.2-8.1C93.6,37.9,95.8,34.8,96.6,31.1z
		 M91.9,30.1c-0.5,2.4-2,4.5-4,5.8l-10-15.7c1.2-0.7,2.5-1.2,3.8-1.4c3.5-0.4,7.1,1.3,9,4.3C92,25.1,92.5,27.6,91.9,30.1z"/>
</g>
<g class="st1">
	<path class="st0" d="M12.2,81.2c-1.2,0-2.2-0.8-2.3-2C7.3,61.4,23,49.5,34.9,46.7c1.3-0.3,2.5,0.5,2.8,1.7c0.3,1.3-0.5,2.5-1.7,2.8
		c-10.2,2.4-23.6,12.5-21.5,27.2c0.2,1.3-0.7,2.5-2,2.7C12.4,81.2,12.3,81.2,12.2,81.2z"/>
</g>
<g class="st1">
	<path class="st0" d="M29.6,86.6c-1,0-1.9-0.6-2.2-1.6C23,72.3,27.6,59.5,38.7,53.3c1.1-0.6,2.6-0.2,3.2,0.9
		c0.6,1.1,0.2,2.6-0.9,3.2c-9.1,5.1-12.8,15.6-9.2,26.1c0.4,1.2-0.2,2.6-1.5,3C30.1,86.6,29.8,86.6,29.6,86.6z"/>
</g>
<g class="st1">
	<path class="st0" d="M3,65c-0.1,0-0.2,0-0.3,0c-1.3-0.2-2.2-1.4-2-2.7c2-14.4,16.1-24.5,31.5-22.4c1.3,0.2,2.2,1.4,2,2.7
		s-1.4,2.2-2.7,2C18.7,42.9,7,51.1,5.3,63C5.2,64.2,4.2,65,3,65z"/>
</g>
</svg>
