<?xml version="1.0" encoding="UTF-8" standalone="no"?>
<svg width="450px" height="340px" viewBox="0 0 450 340" version="1.1" xmlns="http://www.w3.org/2000/svg" xmlns:xlink="http://www.w3.org/1999/xlink" xmlns:sketch="http://www.bohemiancoding.com/sketch/ns">
    <title>ring</title>
    <description>Created with Sketch (http://www.bohemiancoding.com/sketch)</description>
    <defs></defs>
    <g id="Page-1" stroke="none" stroke-width="1" fill="none" fill-rule="evenodd" sketch:type="MSPage">
        <g id="ring" sketch:type="MSLayerGroup" transform="translate(19.000000, 11.000000)">
            <g id="sign-group" transform="translate(0.000000, 99.000000)">
                <path d="M135.4,66.9 C135.4,52.6 139.4,39.3 146.3,28 L100.9,0.2 C89,19.6 82.1,42.4 82.1,66.9 C82.1,73.1 82.6,79.2 83.4,85.2 L136.1,77.6 C135.6,74.1 135.4,70.5 135.4,66.9 L135.4,66.9 Z" id="sign" fill="#1A2857" sketch:type="MSShapeGroup"></path>
                <g id="sign-icon" transform="translate(98.000000, 32.000000)" fill="#FFFFFF" sketch:type="MSShapeGroup">
                    <path d="M24,9.2 L26.5,7 L24,5 L14.4,5 L14.4,9.2 L24,9.2 Z" id="Shape" opacity="0.5"></path>
                    <path d="M2.7,9.5 L0.1,11.7 L2.7,13.7 L12.3,13.7 L12.3,9.5 L2.7,9.5 Z" id="Shape" opacity="0.5"></path>
                    <path d="M22.1,18.4 L24.7,17.6 L22.1,14.2 L14.4,9.9 L14.4,1.9 C14.4,1.3 13.9,0.9 13.4,0.9 C12.8,0.9 12.4,1.4 12.4,1.9 L12.4,4.5 L4.7,0.2 L2,0.9 L4.6,4.3 L12.3,8.6 L12.3,29.8 C12.3,30.4 12.8,30.8 13.3,30.8 C13.9,30.8 14.3,30.3 14.3,29.8 L14.3,19.8 L19,22.4 L21.6,21.6 L19,18.2 L14.3,15.6 L14.3,14.1 L22.1,18.4 L22.1,18.4 Z" id="Shape"></path>
                </g>
                <text id="sign-text" fill="#F7F7F7" sketch:type="MSTextLayer" font-family="Open Sans" font-size="10" font-weight="normal" sketch:alignment="middle">
                    <tspan x="13.2416992" y="38">Makes sense</tspan>
                    <tspan x="18.2905273" y="52">of the web</tspan>
                </text>
            </g>
            <g id="meter-group" transform="translate(45.000000, 32.000000)">
                <path d="M122.3,13.5 C94.5,23.3 71.1,42.4 55.9,67.2 L101.3,95 C110.2,80.6 123.8,69.4 140,63.6 L122.3,13.5 Z" id="meter" fill="#682666" sketch:type="MSShapeGroup"></path>
                <g id="meter-icon" transform="translate(84.000000, 47.000000)" fill="#FFFFFF" sketch:type="MSShapeGroup">
                    <path d="M15.4,5.3 L15.4,-0.5 C11.4,-0.3 7.8,1.3 5.1,3.8 L9.2,7.9 C10.9,6.5 13.1,5.5 15.4,5.3 L15.4,5.3 Z" id="Shape" opacity="0.4"></path>
                    <path d="M23.5,8.3 L27.8,4.4 C25,1.6 21.1,-0.2 16.9,-0.4 L16.9,5.4 C19.5,5.5 21.8,6.6 23.5,8.3 L23.5,8.3 Z" id="Shape" opacity="0.4"></path>
                    <path d="M-0.3,16 L5.5,16 C5.5,13.3 6.5,10.8 8.2,9 L4.1,4.9 C1.3,7.8 -0.3,11.7 -0.3,16 L-0.3,16 Z" id="Shape" opacity="0.4"></path>
                    <path d="M26.8,16 L32.6,16 C32.6,14.7 32.5,13.5 32.2,12.3 C30.6,13.1 28.7,14.1 26.8,15.1 L26.8,16 L26.8,16 Z" id="Shape"></path>
                    <path d="M28.8,5.4 L24.5,9.3 C24.7,9.5 24.8,9.7 25,10 C27.2,9.7 29.4,9.5 31.2,9.2 C30.6,7.9 29.8,6.6 28.8,5.4 L28.8,5.4 Z" id="Shape"></path>
                    <path d="M31.6,10.2 C29.9,10.4 27.7,10.7 25.6,10.9 C21.6,11.4 17.7,11.9 17,12.1 L16.7,12.2 C15.1,12.7 14.2,14.3 14.7,15.9 C14.7,16 14.8,16.2 14.9,16.3 L14.9,16.4 C15,16.5 15,16.6 15.1,16.8 C15.1,16.8 15.1,16.8 15.1,16.9 L15.4,17.2 L15.4,17.2 L15.7,17.5 L15.8,17.5 C15.9,17.6 16,17.7 16.1,17.7 L16.2,17.7 C16.3,17.8 16.4,17.8 16.6,17.8 L16.7,17.8 C16.8,17.8 17,17.9 17.1,17.9 L17.2,17.9 L17.6,17.9 L17.6,17.9 L18,17.9 L18.1,17.9 C18.2,17.9 18.4,17.9 18.5,17.8 L18.8,17.7 C19.5,17.5 23.1,15.7 26.8,13.9 C28.7,12.9 30.6,12 32.1,11.2 C33.9,10.3 35.1,9.6 35.1,9.6 C35.1,9.6 33.6,10 31.6,10.2 L31.6,10.2 Z" id="Shape"></path>
                </g>
                <text id="meter-text" fill="#F7F7F7" sketch:type="MSTextLayer" font-family="Open Sans" font-size="10" font-weight="normal" sketch:alignment="middle">
                    <tspan x="19.0302734" y="11.5">High user-</tspan>
                    <tspan x="12.6484375" y="25.5">performance</tspan>
                </text>
            </g>
            <g id="house-group" transform="translate(167.000000, 0.000000)">
                <path d="M42.9,91.4 C51.5,91.4 59.9,92.9 67.6,95.6 L85.3,45.5 C72,40.8 57.7,38.2 42.8,38.2 C27.9,38.2 13.6,40.8 0.4,45.5 L18,95.6 C25.8,92.9 34.2,91.4 42.9,91.4 L42.9,91.4 Z" id="house" fill="#C43B32" sketch:type="MSShapeGroup"></path>
                <g id="house-icon" transform="translate(32.000000, 54.000000)" fill="#FFFFFF" sketch:type="MSShapeGroup">
                    <path d="M19.2,5.6 L19.2,0.8 L16.1,0.8 L16.1,2.9 L12.5,-0.1 L3.4,7.5 L3.4,22.3 L21.4,22.3 L21.4,7.5 L19.2,5.6 Z" id="Shape" opacity="0.5"></path>
                    <g id="Group" transform="translate(0.000000, 14.000000)">
                        <path d="M3.3,1 L1.7,-0.4 L0.3,1 L0.3,10.1 L3.3,10.1 L3.3,1 Z" id="Shape"></path>
                        <path d="M8.6,1 L7,-0.4 L5.6,1 L5.6,10.1 L8.6,10.1 L8.6,1 Z" id="Shape"></path>
                        <path d="M13.9,1 L12.3,-0.4 L10.9,1 L10.9,10.1 L13.9,10.1 L13.9,1 Z" id="Shape"></path>
                        <path d="M19.2,1 L17.7,-0.4 L16.2,1 L16.2,10.1 L19.2,10.1 L19.2,1 Z" id="Shape"></path>
                    </g>
                    <path d="M24.4,15 L22.8,13.6 L21.4,15 L21.4,24.1 L24.4,24.1 L24.4,15 Z" id="Shape"></path>
                </g>
                <text id="house-text" fill="#F7F7F7" sketch:type="MSTextLayer" font-family="Open Sans" font-size="10" font-weight="normal" sketch:alignment="middle">
                    <tspan x="4.01220703" y="11.5">Takes care of you</tspan>
                </text>
            </g>
            <g id="water-group" transform="translate(234.000000, 31.000000)">
                <path d="M39.2,95.7 L84.3,67.8 C69.1,43.2 45.8,24.2 18.2,14.5 L0.5,64.6 C16.7,70.2 30.4,81.3 39.2,95.7 L39.2,95.7 Z" id="water" fill="#E65525" sketch:type="MSShapeGroup"></path>
                <g id="water-icon" transform="translate(20.000000, 44.000000)" sketch:type="MSShapeGroup">
                    <path d="M34.9,6 C35.2,4.6 35,3.3 34.2,2.1 C33.1,0.4 31.2,-0.5 29.2,-0.3 C28.4,-0.2 27.7,0.1 27,0.5 L22.3,3.4 L18.4,5.8 L21.4,10.5 L15.2,9.7 L14.5,8.6 C14.2,8.2 13.7,8.1 13.3,8.3 C12.9,8.6 12.8,9.1 13,9.5 L15.8,14 C16,14.3 16.3,14.4 16.7,14.4 C16.8,14.4 17,14.3 17.1,14.3 C17.5,14 17.6,13.5 17.4,13.1 L17,12.5 L24.4,15.2 L26.1,17.8 L34.7,12.4 L32.8,9.4 C33.8,8.5 34.6,7.4 34.9,6 L34.9,6 Z M33.2,5.6 C33,6.5 32.5,7.2 31.7,7.7 L28,2 C28.4,1.7 28.9,1.6 29.4,1.5 C30.7,1.3 32,2 32.7,3.1 C33.2,3.8 33.3,4.7 33.2,5.6 L33.2,5.6 Z" id="Shape" fill="#FFFFFF"></path>
                    <path d="M3.8,23.6 C3,17.8 8,13.6 12.4,12.6" id="Shape" stroke="#FFFFFF" stroke-width="1.733" opacity="0.5"></path>
                    <path d="M10.2,25.6 C8.8,21.5 10.1,17.1 14,14.9" id="Shape" stroke="#FFFFFF" stroke-width="1.733" opacity="0.5"></path>
                    <path d="M0.4,17.7 C1.1,12.7 6,9.5 11,10.2" id="Shape" stroke="#FFFFFF" stroke-width="1.733" opacity="0.5"></path>
                </g>
                <text id="water-text" fill="#F7F7F7" sketch:type="MSTextLayer" font-family="Open Sans" font-size="10" font-weight="normal" sketch:alignment="middle">
                    <tspan x="76.8583984" y="10.8">You help</tspan>
                    <tspan x="79.9101562" y="24.8">make it</tspan>
                </text>
            </g>
            <g id="hands-group" transform="translate(273.000000, 99.000000)">
                <path d="M45.4,-0.2 L0.3,27.7 C7.4,39.1 11.4,52.5 11.4,66.9 C11.4,70.6 11.1,74.1 10.6,77.7 L63,85.3 C63.9,79.3 64.3,73.1 64.3,66.9 C64.4,42.3 57.4,19.3 45.4,-0.2 L45.4,-0.2 Z" id="hands" fill="#F18B21" sketch:type="MSShapeGroup"></path>
                <g id="hands-icon" transform="translate(18.000000, 39.000000)" fill="#FFFFFF" sketch:type="MSShapeGroup">
                    <path d="M25.1,10.6 C24.9,10.4 24.4,10.1 23.8,9.6 L20.4,7.1 L20.3,7.1 C19.5,7.1 17.6,7.2 15.2,8 C14.5,8.2 13.8,8.3 13.1,8.3 C11.7,8.3 10.4,7.8 10.1,7 C9.9,6.7 10,6.4 10.2,6.1 C10.6,5.6 14.5,3.3 17.5,2.1 C15.6,1.4 12.5,2.4 11.8,2.6 C5.9,3.6 0.3,0.2 0.3,0.2 L0.3,8.4 C4.6,10.6 4.5,13.5 7.8,15.8 C11.2,18.3 12.9,18.8 12.9,18.8 C14.3,19.6 16.3,18.9 17.1,18.5 L12.4,15.7 C12.2,15.6 12.1,15.3 12.2,15.1 C12.3,14.9 12.6,14.8 12.8,14.9 L17.7,17.8 L18.1,18 C18.4,18.1 19.2,18.5 19.8,18.3 C20.2,18.1 21,17.8 21.6,17.5 L16.3,14.3 C16.1,14.2 16,13.9 16.1,13.7 C16.2,13.5 16.5,13.4 16.7,13.5 L22.5,17 C22.6,17 23.3,17.3 24.1,16.9 C24.7,16.6 25.5,16.3 26,16.1 L20,12.5 C19.8,12.4 19.7,12.1 19.8,11.9 C19.9,11.7 20.2,11.6 20.4,11.7 C21.8,12.5 23.2,13.4 24.6,14.2 C25.4,14.7 26.2,15.1 27,15.6 C27.9,16.1 28.6,15.9 29.4,15.2 C29.7,14.9 30.1,14.3 29.8,13.9 C29.7,13.8 29.5,13.6 29.2,13.4 L28.2,12.7 C27,11.9 25.7,11.1 25.1,10.6 L25.1,10.6 Z" id="Shape"></path>
                    <path d="M22.9,2.4 L21.2,2.4 L20.2,2.4 C18.4,2.4 11.9,6 11,6.8 C11.2,7 11.9,7.5 13.2,7.5 C13.8,7.5 14.4,7.4 15,7.2 C17.4,6.4 19.6,6.3 20.3,6.3 L20.6,6.3 L20.7,6.3 L20.8,6.4 L28.9,12.2 C29.6,11.1 31.5,8.5 35.1,8.3 L35,-0.5 C29.9,2 25.7,2.4 22.9,2.4 L22.9,2.4 Z" id="Shape" opacity="0.5"></path>
                </g>
                <text id="hands-text" fill="#F7F7F7" sketch:type="MSTextLayer" font-family="Open Sans" font-size="10" font-weight="normal" sketch:alignment="middle">
                    <tspan x="89.5170898" y="41">Plays well </tspan>
                    <tspan x="85.6279297" y="55">with others</tspan>
                </text>
            </g>
            <g id="heart-group" transform="translate(259.000000, 177.000000)">
                <path d="M-0.2,45.1 L34.7,85 C57.1,65.4 72.6,38.2 77,7.3 L24.6,-0.3 C22,17.7 12.9,33.6 -0.2,45.1 L-0.2,45.1 Z" id="heart" fill="#FFCE02" sketch:type="MSShapeGroup"></path>
                <g id="heart-icon" transform="translate(21.000000, 23.000000)" fill="#FFFFFF" sketch:type="MSShapeGroup">
                    <path d="M18.4,14.9 C15.2,10.2 8.9,12.9 8.9,18.1 C8.9,21.6 12.1,24.1 14.4,26 C16.9,28 17.6,28.4 18.4,29.2 C19.2,28.4 19.9,28 22.4,26 C24.8,24.2 27.9,21.6 27.9,18.1 C27.9,12.9 21.5,10.1 18.4,14.9" id="Shape"></path>
                    <path d="M18.6,8 C18.1,8 17.7,7.6 17.7,7.1 L17.7,1.2 C17.7,0.7 18.1,0.3 18.6,0.3 C19.1,0.3 19.5,0.7 19.5,1.2 L19.5,7.1 C19.5,7.6 19.1,8 18.6,8 L18.6,8 Z" id="Shape" opacity="0.5"></path>
                    <path d="M25.6,8.8 C25.5,8.8 25.3,8.8 25.2,8.7 C24.7,8.5 24.6,7.9 24.8,7.4 L27.5,2.2 C27.7,1.7 28.3,1.6 28.8,1.8 C29.3,2 29.4,2.6 29.2,3.1 L26.5,8.3 C26.3,8.6 26,8.8 25.6,8.8 L25.6,8.8 Z" id="Shape" opacity="0.5"></path>
                    <path d="M31.1,13.6 C30.8,13.6 30.5,13.5 30.3,13.2 C30,12.8 30.1,12.2 30.5,11.9 L35.3,8.5 C35.7,8.2 36.3,8.3 36.6,8.7 C36.9,9.1 36.8,9.7 36.4,10 L31.6,13.4 C31.5,13.6 31.3,13.6 31.1,13.6 L31.1,13.6 Z" id="Shape" opacity="0.5"></path>
                    <path d="M11.2,8.8 C10.9,8.8 10.5,8.6 10.4,8.3 L7.7,3.1 C7.5,2.6 7.6,2.1 8.1,1.8 C8.6,1.6 9.1,1.7 9.4,2.2 L12.1,7.4 C12.3,7.9 12.2,8.4 11.7,8.7 C11.5,8.7 11.3,8.8 11.2,8.8 L11.2,8.8 Z" id="Shape" opacity="0.5"></path>
                    <path d="M5.7,13.6 C5.5,13.6 5.3,13.5 5.2,13.4 L0.4,10 C-2.12052598e-14,9.7 -0.1,9.1 0.2,8.7 C0.5,8.3 1.1,8.2 1.5,8.5 L6.3,11.9 C6.7,12.2 6.8,12.8 6.5,13.2 C6.3,13.5 6,13.6 5.7,13.6 L5.7,13.6 Z" id="Shape" opacity="0.5"></path>
                </g>
                <text id="heart-text" fill="#F7F7F7" sketch:type="MSTextLayer" font-family="Open Sans" font-size="10" font-weight="normal" sketch:alignment="middle">
                    <tspan x="87.6855469" y="60">Exuberance</tspan>
                </text>
            </g>
            <g id="compass-group" transform="translate(210.000000, 222.000000)">
                <path d="M-0.1,18.4 C-0.1,18.4 -0.2,18.4 -0.1,18.4 L-0.1,71.5 C32,71.5 61.3,59.6 83.7,40 L48.8,0.1 C35.7,11.5 18.6,18.4 -0.1,18.4 L-0.1,18.4 Z" id="compass" fill="#5BC1A5" sketch:type="MSShapeGroup"></path>
                <g id="compass-icon" transform="translate(24.000000, 23.000000)" fill="#FFFFFF" sketch:type="MSShapeGroup">
                    <path d="M10.8,17.3 C9.1,17.3 7.5,16.8 6.1,16 C5.7,15.8 5.6,15.3 5.8,14.9 C6,14.5 6.5,14.4 6.9,14.6 C8.1,15.3 9.4,15.7 10.8,15.7 C14.9,15.7 18.2,12.4 18.2,8.3 C18.2,7.9 18.6,7.5 19,7.5 C19.4,7.5 19.8,7.9 19.8,8.3 C19.8,13.3 15.7,17.3 10.8,17.3 L10.8,17.3 Z" id="Shape" opacity="0.5"></path>
                    <path d="M21.2,27.3 L14.2,11.4 C14.9,10.6 15.3,9.5 15.3,8.4 C15.3,6.1 13.6,4.2 11.4,3.8 L11.4,1 C11.4,0.6 11,0.2 10.6,0.2 C10.2,0.2 9.8,0.6 9.8,1 L9.8,3.7 C7.6,4.1 6,6 6,8.3 C6,9.4 6.4,10.3 6.9,11.1 L-0.2,27.2 L0.7,27.2 L8.8,12.6 C9.3,12.8 10,13 10.6,13 C11.2,13 11.7,12.9 12.2,12.7 L20.3,27.3 L21.2,27.3 L21.2,27.3 Z M8,8.3 C8,6.8 9.2,5.6 10.7,5.6 C12.2,5.6 13.4,6.8 13.4,8.3 C13.4,9.8 12.2,11 10.7,11 C9.2,11 8,9.8 8,8.3 L8,8.3 Z" id="Shape"></path>
                </g>
                <text id="compass-text" fill="#F7F7F7" sketch:type="MSTextLayer" font-family="Open Sans" font-size="10" font-weight="normal" sketch:alignment="middle">
                    <tspan x="52.7670898" y="87">Finely crafted</tspan>
                </text>
            </g>
            <g id="graph-group" transform="translate(94.000000, 222.000000)">
                <path d="M66.8,0 L31.8,40.1 C54.2,59.7 83.6,71.6 115.7,71.6 L115.8,71.6 L115.8,18.5 C97.1,18.4 79.9,11.4 66.8,0 L66.8,0 Z" id="graph" fill="#109AD6" sketch:type="MSShapeGroup"></path>
                <g id="graph-icon" transform="translate(60.000000, 24.000000)" fill="#FFFFFF" sketch:type="MSShapeGroup">
                    <g id="Group" transform="translate(1.000000, 1.000000)">
                        <path d="M12.5,11.1 C12.2,11.1 12,10.9 12,10.6 C11.7,7.3 12.3,2.7 15.1,0.6 C15.3,0.4 15.7,0.5 15.8,0.7 C16,0.9 15.9,1.3 15.7,1.4 C13.4,3.1 12.7,7.2 13,10.4 C13,10.9 12.8,11.1 12.5,11.1 L12.5,11.1 L12.5,11.1 Z" id="Shape"></path>
                        <path d="M12.2,11.5 C12.1,11.5 11.9,11.4 11.8,11.3 C9.9,9.2 5.5,7.6 1.1,8.9 C0.8,9 0.5,8.8 0.5,8.5 C0.4,8.2 0.6,7.9 0.9,7.9 C5.7,6.5 10.5,8.3 12.6,10.6 C12.8,10.8 12.8,11.1 12.6,11.3 C12.5,11.5 12.4,11.5 12.2,11.5 L12.2,11.5 Z" id="Shape"></path>
                        <path d="M12.9,11.1 C12.8,11.1 12.7,11.1 12.6,11 C12.4,10.8 12.3,10.5 12.5,10.3 C14.3,7.9 19,6.1 23.6,7.6 C23.9,7.7 24,8 23.9,8.3 C23.8,8.6 23.5,8.7 23.2,8.6 C19.2,7.3 14.8,8.8 13.3,11 C13.2,11 13.1,11.1 12.9,11.1 L12.9,11.1 Z" id="Shape"></path>
                        <path d="M27.7,19 C27.4,19 27.2,18.8 27.2,18.5 C27.2,16.3 28.8,10.1 32.6,7.8 C32.8,7.7 33.2,7.7 33.3,8 C33.4,8.2 33.4,8.6 33.1,8.7 C29.9,10.6 28.2,16.1 28.2,18.5 C28.2,18.8 28,19 27.7,19 L27.7,19 Z" id="Shape"></path>
                        <path d="M27.3,18.8 C27.1,18.8 27,18.7 26.9,18.6 C23,12.8 19.4,10.9 13,11.3 C12.7,11.3 12.5,11.1 12.4,10.8 C12.4,10.5 12.6,10.3 12.9,10.2 C19.6,9.8 23.6,11.9 27.7,18 C27.9,18.2 27.8,18.6 27.6,18.7 C27.5,18.8 27.4,18.8 27.3,18.8 L27.3,18.8 Z" id="Shape"></path>
                        <path d="M19.1,26.1 C18.8,26.1 18.6,25.9 18.6,25.6 C18.3,21.5 15.5,14.4 12.4,11.7 C12.2,11.5 12.2,11.2 12.4,11 C12.6,10.8 12.9,10.8 13.1,11 C16.4,14 19.4,21.3 19.6,25.6 C19.7,25.8 19.5,26 19.1,26.1 L19.1,26.1 L19.1,26.1 Z" id="Shape"></path>
                        <path d="M7.5,21.1 C7.3,21.1 7.2,21 7.1,20.9 C6.9,20.7 7,20.3 7.2,20.2 C10.8,17.4 20.4,15.3 27.6,18.2 C27.9,18.3 28,18.6 27.9,18.9 C27.8,19.2 27.5,19.3 27.2,19.2 C20.3,16.4 11.2,18.4 7.8,21 C7.8,21.1 7.7,21.1 7.5,21.1 L7.5,21.1 Z" id="Shape"></path>
                        <path d="M7.6,20.8 C7.3,20.8 7.1,20.6 7.1,20.3 C6.9,18.2 7.3,16 8.1,14.3 C9,12.3 10.5,11 12.3,10.6 C12.6,10.5 12.9,10.7 12.9,11 C13,11.3 12.8,11.6 12.5,11.6 C9.3,12.3 7.9,16.5 8.1,20.2 C8.1,20.5 7.9,20.8 7.6,20.8 L7.6,20.8 L7.6,20.8 Z" id="Shape"></path>
                        <path d="M19.2,26.1 L19.2,26.1 C18.9,26.1 18.7,25.8 18.7,25.5 C18.7,25 18.8,24.5 18.8,24 C19.3,16.8 19.8,10.6 33,7.5 C33.3,7.4 33.6,7.6 33.6,7.9 C33.7,8.2 33.5,8.5 33.2,8.5 C20.7,11.5 20.3,17 19.8,24.1 C19.8,24.6 19.7,25.1 19.7,25.6 C19.7,25.9 19.5,26.1 19.2,26.1 L19.2,26.1 Z" id="Shape"></path>
                    </g>
                    <circle id="Oval" cx="8.8" cy="21.8" r="1.8"></circle>
                    <circle id="Oval" cx="23.8" cy="8.8" r="1.8"></circle>
                    <path d="M22,26.6 C22,27.6 21.2,28.4 20.2,28.4 C19.2,28.4 18.4,27.6 18.4,26.6 C18.4,25.6 19.2,24.8 20.2,24.8 C21.2,24.7 22,25.6 22,26.6 L22,26.6 Z" id="Shape"></path>
                    <path d="M30.5,19.7 C30.5,20.7 29.7,21.5 28.7,21.5 C27.7,21.5 26.9,20.7 26.9,19.7 C26.9,18.7 27.7,17.9 28.7,17.9 C29.7,17.8 30.5,18.7 30.5,19.7 L30.5,19.7 Z" id="Shape"></path>
                    <circle id="Oval" cx="33.8" cy="8.8" r="1.8"></circle>
                    <circle id="Oval" cx="13.8" cy="11.8" r="1.8"></circle>
                    <circle id="Oval" cx="16.8" cy="1.8" r="1.8"></circle>
                    <circle id="Oval" cx="1.8" cy="9.8" r="1.8"></circle>
                </g>
                <text id="graph-text" fill="#F7F7F7" sketch:type="MSTextLayer" font-family="Open Sans" font-size="10" font-weight="normal" sketch:alignment="middle">
                    <tspan x="27.9658203" y="86.5">Global</tspan>
                </text>
            </g>
            <g id="flame-group" transform="translate(2.000000, 176.000000)">
                <path d="M134.1,0.5 L81.4,8.1 C85.8,39 101.4,66.4 123.8,86 L158.8,45.9 C145.7,34.5 136.7,18.6 134.1,0.5 L134.1,0.5 Z" id="flame" fill="#005189" sketch:type="MSShapeGroup"></path>
                <g id="flame-icon" transform="translate(113.000000, 22.000000)" fill="#FFFFFF" sketch:type="MSShapeGroup">
                    <path d="M18.1,17.2 C18,14.3 15.5,8 15.5,7.7 C15.4,8.7 14.9,10.2 13.9,10.6 C13.6,10.7 13,10.8 12.5,10.6 C11.3,10.1 10.8,8.8 10.7,7.7 C10.4,5.2 10.9,2.2 11.8,-0.1 C4.7,5 1.7,10.4 1.1,11.8 C-1.6,17.8 0.1,23.3 3,26.2 C4.1,27.4 4.9,28.3 5.9,28.9 C2.9,25.4 4.7,20.9 5.3,19.6 C5.7,18.9 6.8,17.1 7.4,16.5 C7.8,16 7.7,16.1 8.1,16.6 C9.2,17.7 10.1,18.8 11.3,19.8 C13.3,21.5 15.2,24.5 14.4,27.3 C14.4,27.4 14.3,27.5 14.3,27.6 C17,25.2 18.3,21.1 18.1,17.2 L18.1,17.2 Z" id="Shape"></path>
                    <path d="M10.9,24.4 C10.5,23.3 9.4,21.9 8.3,20.9 C8.9,23.7 7.4,24.3 7.6,26.4 C7.7,27.1 8.4,28.1 9.5,27.9 C10.9,27.8 11.5,25.9 10.9,24.4 L10.9,24.4 Z" id="Shape" opacity="0.5"></path>
                </g>
                <text id="flame-text" fill="#F7F7F7" sketch:type="MSTextLayer" font-family="Open Sans" font-size="10" font-weight="normal" sketch:alignment="middle">
                    <tspan x="6.27636719" y="61.0703125">Balances power</tspan>
                    <tspan x="10.9638672" y="75.0703125">and simplicity</tspan>
                </text>
            </g>
        </g>
    </g>
</svg>